# Created by Open3D 
# object name: Paralelopiped
# number of vertices: 372
# number of triangles: 740
mtllib Paralelopiped.mtl
v 0.5 -0.4 0
vn 0.866025 0 -0.5
v 0.5 -0.3 0
vn 0.866025 4.61204e-08 -0.5
v 0.55 -0.4 0.0866025
vn 0.866025 9.22407e-08 -0.5
v 0.557143 -0.285714 0.0989743
vn 0.866025 8.44493e-08 -0.5
v 0.6 -0.4 0.173205
vn 0.866025 1.79059e-07 -0.5
v 0.614286 -0.285714 0.197949
vn 0.866025 5.50847e-08 -0.5
v 0.65 -0.4 0.259808
vn 0.866025 3.87356e-08 -0.5
v 0.671429 -0.285714 0.296923
vn 0.866025 7.23414e-09 -0.5
v 0.7 -0.4 0.34641
vn 0.866025 6.51926e-08 -0.5
v 0.728571 -0.285714 0.395897
vn 0.866025 4.82489e-08 -0.5
v 0.75 -0.4 0.433013
vn 0.866025 1.35035e-07 -0.5
v 0.785714 -0.285714 0.494872
vn 0.866025 8.09412e-08 -0.5
v 0.8 -0.4 0.519615
vn 0.866025 1.69318e-07 -0.5
v 0.842857 -0.285714 0.593846
vn 0.866025 6.76709e-08 -0.5
v 0.85 -0.4 0.606218
vn 0.866025 9.99938e-08 -0.5
v 0.9 -0.3 0.69282
vn 0.866025 5.45421e-08 -0.5
v 0.9 -0.4 0.69282
vn 0.866026 0 -0.5
v 0.5 -0.2 0
vn 0.866025 0 -0.5
v 0.557143 -0.171429 0.0989743
vn 0.866025 0 -0.5
v 0.614286 -0.171429 0.197949
vn 0.866025 0 -0.5
v 0.671429 -0.171429 0.296923
vn 0.866025 0 -0.5
v 0.728571 -0.171429 0.395897
vn 0.866025 0 -0.5
v 0.785714 -0.171429 0.494872
vn 0.866025 0 -0.5
v 0.842857 -0.171429 0.593846
vn 0.866025 0 -0.5
v 0.9 -0.2 0.69282
vn 0.866025 0 -0.5
v 0.9 -0.1 0.69282
vn 0.866025 0 -0.5
v 0.842857 -0.0571429 0.593846
vn 0.866025 0 -0.5
v 0.9 0 0.69282
vn 0.866025 0 -0.5
v 0.842857 0.0571429 0.593846
vn 0.866025 0 -0.5
v 0.9 0.1 0.69282
vn 0.866025 0 -0.5
v 0.842857 0.171429 0.593846
vn 0.866025 0 -0.5
v 0.9 0.2 0.69282
vn 0.866025 0 -0.5
v 0.842857 0.285714 0.593846
vn 0.866025 -7.94718e-08 -0.5
v 0.9 0.3 0.69282
vn 0.866025 -5.45421e-08 -0.5
v 0.85 0.4 0.606218
vn 0.866025 -9.99938e-08 -0.5
v 0.9 0.4 0.69282
vn 0.866026 0 -0.5
v 0.5 -0.1 0
vn 0.866025 0 -0.5
v 0.557143 -0.0571429 0.0989743
vn 0.866025 0 -0.5
v 0.614286 -0.0571429 0.197949
vn 0.866025 0 -0.5
v 0.671429 -0.0571429 0.296923
vn 0.866025 0 -0.5
v 0.728571 -0.0571429 0.395897
vn 0.866025 0 -0.5
v 0.785714 -0.0571429 0.494872
vn 0.866025 0 -0.5
v 0.5 0 0
vn 0.866025 0 -0.5
v 0.557143 0.0571429 0.0989743
vn 0.866025 0 -0.5
v 0.614286 0.0571429 0.197949
vn 0.866025 0 -0.5
v 0.671429 0.0571429 0.296923
vn 0.866025 0 -0.5
v 0.728571 0.0571429 0.395897
vn 0.866025 0 -0.5
v 0.785714 0.0571429 0.494872
vn 0.866025 0 -0.5
v 0.5 0.1 0
vn 0.866025 0 -0.5
v 0.557143 0.171429 0.0989743
vn 0.866025 0 -0.5
v 0.614286 0.171429 0.197949
vn 0.866025 0 -0.5
v 0.671429 0.171429 0.296923
vn 0.866025 0 -0.5
v 0.728571 0.171429 0.395897
vn 0.866025 0 -0.5
v 0.785714 0.171429 0.494872
vn 0.866025 0 -0.5
v 0.5 0.2 0
vn 0.866025 0 -0.5
v 0.557143 0.285714 0.0989743
vn 0.866025 -7.19092e-08 -0.5
v 0.614286 0.285714 0.197949
vn 0.866025 -5.50847e-08 -0.5
v 0.671429 0.285714 0.296923
vn 0.866025 -7.23414e-09 -0.5
v 0.728571 0.285714 0.395897
vn 0.866025 -4.82489e-08 -0.5
v 0.785714 0.285714 0.494872
vn 0.866025 -8.09412e-08 -0.5
v 0.5 0.3 0
vn 0.866025 -4.61204e-08 -0.5
v 0.55 0.4 0.0866025
vn 0.866025 -9.22407e-08 -0.5
v 0.6 0.4 0.173205
vn 0.866025 -1.79059e-07 -0.5
v 0.5 0.4 0
vn 0.866025 0 -0.5
v 0.65 0.4 0.259808
vn 0.866025 -3.87356e-08 -0.5
v 0.7 0.4 0.34641
vn 0.866025 -6.51926e-08 -0.5
v 0.75 0.4 0.433013
vn 0.866025 -1.35035e-07 -0.5
v 0.8 0.4 0.519615
vn 0.866025 -1.69318e-07 -0.5
v -0.5 -0.4 0
vn 0 -1 0
v -0.388889 -0.4 0
vn 0 -1 0
v -0.45 -0.4 0.0866025
vn 0 -1 0
v -0.392308 -0.4 0.0989743
vn 0 -1 0
v -0.4 -0.4 0.173205
vn 0 -1 0
v -0.284615 -0.4 0.0989743
vn 0 -1 0
v -0.284615 -0.4 0.197949
vn 0 -1 0
v -0.176923 -0.4 0.0989743
vn 0 -1 0
v -0.176923 -0.4 0.197949
vn 0 -1 0
v -0.0692308 -0.4 0.0989743
vn 0 -1 0
v -0.0692308 -0.4 0.197949
vn 0 -1 0
v 0.0384615 -0.4 0.0989743
vn 0 -1 0
v 0.0384615 -0.4 0.197949
vn 0 -1 0
v 0.146154 -0.4 0.0989743
vn 0 -1 0
v 0.146154 -0.4 0.197949
vn 0 -1 0
v 0.253846 -0.4 0.0989743
vn 0 -1 0
v 0.253846 -0.4 0.197949
vn 0 -1 0
v 0.361538 -0.4 0.0989743
vn 0 -1 0
v 0.361538 -0.4 0.197949
vn 0 -1 0
v 0.469231 -0.4 0.0989743
vn 0 -1 0
v 0.469231 -0.4 0.197949
vn 0 -1 0
v 0.576923 -0.4 0.197949
vn 0 -1 0
v 0.469231 -0.4 0.296923
vn 0 -1 0
v 0.576923 -0.4 0.296923
vn 0 -1 0
v 0.469231 -0.4 0.395897
vn 0 -1 0
v 0.576923 -0.4 0.395897
vn 0 -1 0
v 0.469231 -0.4 0.494872
vn 0 -1 0
v 0.576923 -0.4 0.494872
vn 0 -1 0
v 0.469231 -0.4 0.593846
vn 0 -1 0
v 0.576923 -0.4 0.593846
vn 0 -1 0
v 0.566667 -0.4 0.69282
vn 0 -1 0
v 0.677778 -0.4 0.69282
vn 0 -1 0
v 0.684615 -0.4 0.593846
vn 0 -1 0
v 0.788889 -0.4 0.69282
vn 0 -1 0
v 0.792308 -0.4 0.593846
vn 0 -1 0
v 0.684615 -0.4 0.494872
vn 0 -1 0
v -0.277778 -0.4 0
vn 0 -1 0
v -0.166667 -0.4 0
vn 0 -1 0
v -0.0555556 -0.4 0
vn 0 -1 0
v 0.0555556 -0.4 0
vn 0 -1 0
v 0.166667 -0.4 0
vn 0 -1 0
v 0.277778 -0.4 0
vn 0 -1 0
v 0.388889 -0.4 0
vn 0 -1 0
v 0.684615 -0.4 0.395897
vn 0 -1 0
v 0.455556 -0.4 0.69282
vn 0 -1 0
v 0.361538 -0.4 0.593846
vn 0 -1 0
v 0.361538 -0.4 0.494872
vn 0 -1 0
v 0.361538 -0.4 0.395897
vn 0 -1 0
v 0.361538 -0.4 0.296923
vn 0 -1 0
v 0.344444 -0.4 0.69282
vn 0 -1 0
v 0.253846 -0.4 0.593846
vn 0 -1 0
v 0.253846 -0.4 0.494872
vn 0 -1 0
v 0.253846 -0.4 0.395897
vn 0 -1 0
v 0.253846 -0.4 0.296923
vn 0 -1 0
v 0.233333 -0.4 0.69282
vn 0 -1 0
v 0.146154 -0.4 0.593846
vn 0 -1 0
v 0.146154 -0.4 0.494872
vn 0 -1 0
v 0.146154 -0.4 0.395897
vn 0 -1 0
v 0.146154 -0.4 0.296923
vn 0 -1 0
v 0.122222 -0.4 0.69282
vn 0 -1 0
v 0.0384615 -0.4 0.593846
vn 0 -1 0
v 0.0384615 -0.4 0.494872
vn 0 -1 0
v 0.0384615 -0.4 0.395897
vn 0 -1 0
v 0.0384615 -0.4 0.296923
vn 0 -1 0
v 0.0111111 -0.4 0.69282
vn 0 -1 0
v -0.0692308 -0.4 0.593846
vn 0 -1 0
v -0.0692308 -0.4 0.494872
vn 0 -1 0
v -0.0692308 -0.4 0.395897
vn 0 -1 0
v -0.0692308 -0.4 0.296923
vn 0 -1 0
v -0.1 -0.4 0.69282
vn 0 -1 0
v -0.15 -0.4 0.606218
vn 0 -1 0
v -0.176923 -0.4 0.494872
vn 0 -1 0
v -0.2 -0.4 0.519615
vn 0 -1 0
v -0.25 -0.4 0.433013
vn 0 -1 0
v -0.176923 -0.4 0.395897
vn 0 -1 0
v -0.3 -0.4 0.34641
vn 0 -1 0
v -0.176923 -0.4 0.296923
vn 0 -1 0
v -0.284615 -0.4 0.296923
vn 0 -1 0
v -0.35 -0.4 0.259808
vn 0 -1 0
v -0.5 0.4 0
vn -0.866025 0 0.5
v -0.5 0.3 0
vn -0.866025 4.61204e-08 0.5
v -0.45 0.4 0.0866025
vn -0.866025 8.14867e-08 0.5
v -0.442857 0.285714 0.0989743
vn -0.866025 4.0144e-08 0.5
v -0.4 0.4 0.173205
vn -0.866025 5.58772e-08 0.5
v -0.385714 0.285714 0.197949
vn -0.866025 4.06698e-08 0.5
v -0.35 0.4 0.259808
vn -0.866025 1.31122e-07 0.5
v -0.328571 0.285714 0.296923
vn -0.866025 4.56739e-08 0.5
v -0.3 0.4 0.34641
vn -0.866025 -6.66359e-09 0.5
v -0.271429 0.285714 0.395897
vn -0.866025 -3.58381e-08 0.5
v -0.25 0.4 0.433013
vn -0.866025 -6.51356e-08 0.5
v -0.214286 0.285714 0.494872
vn -0.866025 -1.75607e-08 0.5
v -0.2 0.4 0.519615
vn -0.866025 -7.70458e-08 0.5
v -0.157143 0.285714 0.593846
vn -0.866025 -5.91314e-08 0.5
v -0.15 0.4 0.606218
vn -0.866025 -1.39282e-07 0.5
v -0.1 0.3 0.69282
vn -0.866025 -7.71943e-08 0.5
v -0.1 0.4 0.69282
vn -0.866025 0 0.5
v -0.5 0.2 0
vn -0.866025 0 0.5
v -0.442857 0.171429 0.0989743
vn -0.866025 0 0.5
v -0.385714 0.171429 0.197949
vn -0.866025 0 0.5
v -0.328571 0.171429 0.296923
vn -0.866025 0 0.5
v -0.271429 0.171429 0.395897
vn -0.866025 0 0.5
v -0.214286 0.171429 0.494872
vn -0.866025 0 0.5
v -0.157143 0.171429 0.593846
vn -0.866025 0 0.5
v -0.1 0.2 0.69282
vn -0.866025 0 0.5
v -0.1 0.1 0.69282
vn -0.866025 0 0.5
v -0.157143 0.0571429 0.593846
vn -0.866025 0 0.5
v -0.1 0 0.69282
vn -0.866025 0 0.5
v -0.157143 -0.0571429 0.593846
vn -0.866025 0 0.5
v -0.1 -0.1 0.69282
vn -0.866025 0 0.5
v -0.157143 -0.171429 0.593846
vn -0.866025 0 0.5
v -0.1 -0.2 0.69282
vn -0.866025 0 0.5
v -0.157143 -0.285714 0.593846
vn -0.866025 6.94431e-08 0.5
v -0.1 -0.3 0.69282
vn -0.866025 7.71943e-08 0.5
v -0.5 0.1 0
vn -0.866025 0 0.5
v -0.442857 0.0571429 0.0989743
vn -0.866025 0 0.5
v -0.385714 0.0571429 0.197949
vn -0.866025 0 0.5
v -0.328571 0.0571429 0.296923
vn -0.866025 0 0.5
v -0.271429 0.0571429 0.395897
vn -0.866025 0 0.5
v -0.214286 0.0571429 0.494872
vn -0.866025 0 0.5
v -0.5 0 0
vn -0.866025 0 0.5
v -0.442857 -0.0571429 0.0989743
vn -0.866025 0 0.5
v -0.385714 -0.0571429 0.197949
vn -0.866025 0 0.5
v -0.328571 -0.0571429 0.296923
vn -0.866025 0 0.5
v -0.271429 -0.0571429 0.395897
vn -0.866025 0 0.5
v -0.214286 -0.0571429 0.494872
vn -0.866025 0 0.5
v -0.5 -0.1 0
vn -0.866025 0 0.5
v -0.442857 -0.171429 0.0989743
vn -0.866025 0 0.5
v -0.385714 -0.171429 0.197949
vn -0.866025 0 0.5
v -0.328571 -0.171429 0.296923
vn -0.866025 0 0.5
v -0.271429 -0.171429 0.395897
vn -0.866025 0 0.5
v -0.214286 -0.171429 0.494872
vn -0.866025 0 0.5
v -0.5 -0.2 0
vn -0.866025 0 0.5
v -0.442857 -0.285714 0.0989743
vn -0.866025 -3.41829e-08 0.5
v -0.385714 -0.285714 0.197949
vn -0.866025 -4.06698e-08 0.5
v -0.328571 -0.285714 0.296923
vn -0.866025 -4.56739e-08 0.5
v -0.271429 -0.285714 0.395897
vn -0.866025 3.58381e-08 0.5
v -0.214286 -0.285714 0.494872
vn -0.866025 1.75607e-08 0.5
v -0.5 -0.3 0
vn -0.866025 -4.61204e-08 0.5
v 0.469231 0.4 0.0989743
vn 0 1 0
v 0.388889 0.4 0
vn 0 1 0
v 0.361538 0.4 0.0989743
vn 0 1 0
v 0.277778 0.4 0
vn 0 1 0
v 0.253846 0.4 0.0989743
vn 0 1 0
v 0.166667 0.4 0
vn 0 1 0
v 0.146154 0.4 0.0989743
vn 0 1 0
v 0.0555556 0.4 0
vn 0 1 0
v 0.0384615 0.4 0.0989743
vn 0 1 0
v -0.0555556 0.4 0
vn 0 1 0
v -0.0692308 0.4 0.0989743
vn 0 1 0
v -0.166667 0.4 0
vn 0 1 0
v -0.176923 0.4 0.0989743
vn 0 1 0
v -0.277778 0.4 0
vn 0 1 0
v -0.284615 0.4 0.0989743
vn 0 1 0
v -0.388889 0.4 0
vn 0 1 0
v -0.392308 0.4 0.0989743
vn 0 1 0
v -0.284615 0.4 0.197949
vn 0 1 0
v -0.284615 0.4 0.296923
vn 0 1 0
v -0.176923 0.4 0.296923
vn 0 1 0
v -0.176923 0.4 0.395897
vn 0 1 0
v -0.0692308 0.4 0.395897
vn 0 1 0
v -0.0692308 0.4 0.494872
vn 0 1 0
v 0.0384615 0.4 0.494872
vn 0 1 0
v 0.0384615 0.4 0.593846
vn 0 1 0
v 0.146154 0.4 0.593846
vn 0 1 0
v 0.122222 0.4 0.69282
vn 0 1 0
v 0.233333 0.4 0.69282
vn 0 1 0
v -0.176923 0.4 0.494872
vn 0 1 0
v -0.0692308 0.4 0.593846
vn 0 1 0
v 0.0111111 0.4 0.69282
vn 0 1 0
v 0.253846 0.4 0.593846
vn 0 1 0
v 0.344444 0.4 0.69282
vn 0 1 0
v 0.361538 0.4 0.593846
vn 0 1 0
v 0.455556 0.4 0.69282
vn 0 1 0
v 0.469231 0.4 0.593846
vn 0 1 0
v 0.566667 0.4 0.69282
vn 0 1 0
v 0.576923 0.4 0.593846
vn 0 1 0
v 0.677778 0.4 0.69282
vn 0 1 0
v 0.684615 0.4 0.593846
vn 0 1 0
v 0.788889 0.4 0.69282
vn 0 1 0
v 0.792308 0.4 0.593846
vn 0 1 0
v 0.684615 0.4 0.494872
vn 0 1 0
v 0.684615 0.4 0.395897
vn 0 1 0
v 0.576923 0.4 0.395897
vn 0 1 0
v 0.576923 0.4 0.296923
vn 0 1 0
v 0.469231 0.4 0.296923
vn 0 1 0
v 0.469231 0.4 0.197949
vn 0 1 0
v 0.361538 0.4 0.197949
vn 0 1 0
v 0.576923 0.4 0.197949
vn 0 1 0
v -0.176923 0.4 0.197949
vn 0 1 0
v -0.0692308 0.4 0.197949
vn 0 1 0
v -0.0692308 0.4 0.296923
vn 0 1 0
v 0.0384615 0.4 0.197949
vn 0 1 0
v 0.0384615 0.4 0.296923
vn 0 1 0
v 0.0384615 0.4 0.395897
vn 0 1 0
v 0.146154 0.4 0.197949
vn 0 1 0
v 0.146154 0.4 0.296923
vn 0 1 0
v 0.146154 0.4 0.395897
vn 0 1 0
v 0.146154 0.4 0.494872
vn 0 1 0
v 0.253846 0.4 0.197949
vn 0 1 0
v 0.253846 0.4 0.296923
vn 0 1 0
v 0.253846 0.4 0.395897
vn 0 1 0
v 0.253846 0.4 0.494872
vn 0 1 0
v 0.361538 0.4 0.296923
vn 0 1 0
v 0.469231 0.4 0.395897
vn 0 1 0
v 0.576923 0.4 0.494872
vn 0 1 0
v 0.361538 0.4 0.395897
vn 0 1 0
v 0.361538 0.4 0.494872
vn 0 1 0
v 0.469231 0.4 0.494872
vn 0 1 0
v 0.788889 0.285714 0.69282
vn 0 0 1
v 0.788889 0.171429 0.69282
vn 0 0 1
v 0.788889 0.0571429 0.69282
vn 0 0 1
v 0.788889 -0.0571429 0.69282
vn 0 0 1
v 0.788889 -0.171429 0.69282
vn 0 0 1
v 0.788889 -0.285714 0.69282
vn 0 0 1
v 0.677778 0.285714 0.69282
vn 0 0 1
v 0.677778 0.171429 0.69282
vn 0 0 1
v 0.677778 0.0571429 0.69282
vn 0 0 1
v 0.677778 -0.0571429 0.69282
vn 0 0 1
v 0.677778 -0.171429 0.69282
vn 0 0 1
v 0.677778 -0.285714 0.69282
vn 0 0 1
v 0.566667 -0.285714 0.69282
vn 0 0 1
v 0.455556 -0.285714 0.69282
vn 0 0 1
v 0.344444 -0.285714 0.69282
vn 0 0 1
v 0.233333 -0.285714 0.69282
vn 0 0 1
v 0.122222 -0.285714 0.69282
vn 0 0 1
v 0.0111111 -0.285714 0.69282
vn 0 0 1
v 0.566667 0.285714 0.69282
vn 0 0 1
v 0.566667 0.171429 0.69282
vn 0 0 1
v 0.566667 0.0571429 0.69282
vn 0 0 1
v 0.566667 -0.0571429 0.69282
vn 0 0 1
v 0.566667 -0.171429 0.69282
vn 0 0 1
v 0.455556 0.285714 0.69282
vn 0 0 1
v 0.455556 0.171429 0.69282
vn 0 0 1
v 0.455556 0.0571429 0.69282
vn 0 0 1
v 0.455556 -0.0571429 0.69282
vn 0 0 1
v 0.455556 -0.171429 0.69282
vn 0 0 1
v 0.344444 0.285714 0.69282
vn 0 0 1
v 0.344444 0.171429 0.69282
vn 0 0 1
v 0.344444 0.0571429 0.69282
vn 0 0 1
v 0.344444 -0.0571429 0.69282
vn 0 0 1
v 0.344444 -0.171429 0.69282
vn 0 0 1
v 0.233333 0.285714 0.69282
vn 0 0 1
v 0.233333 0.171429 0.69282
vn 0 0 1
v 0.233333 0.0571429 0.69282
vn 0 0 1
v 0.233333 -0.0571429 0.69282
vn 0 0 1
v 0.233333 -0.171429 0.69282
vn 0 0 1
v 0.122222 0.285714 0.69282
vn 0 0 1
v 0.122222 0.171429 0.69282
vn 0 0 1
v 0.122222 0.0571429 0.69282
vn 0 0 1
v 0.122222 -0.0571429 0.69282
vn 0 0 1
v 0.122222 -0.171429 0.69282
vn 0 0 1
v 0.0111111 0.285714 0.69282
vn 0 0 1
v 0.0111111 0.171429 0.69282
vn 0 0 1
v 0.0111111 0.0571429 0.69282
vn 0 0 1
v 0.0111111 -0.0571429 0.69282
vn 0 0 1
v 0.0111111 -0.171429 0.69282
vn 0 0 1
v -0.388889 0.285714 0
vn 0 0 -1
v -0.388889 0.171429 0
vn 0 0 -1
v -0.388889 0.0571429 0
vn 0 0 -1
v -0.388889 -0.0571429 0
vn 0 0 -1
v -0.388889 -0.171429 0
vn 0 0 -1
v -0.388889 -0.285714 0
vn 0 0 -1
v -0.277778 0.285714 0
vn 0 0 -1
v -0.277778 0.171429 0
vn 0 0 -1
v -0.277778 0.0571429 0
vn 0 0 -1
v -0.277778 -0.0571429 0
vn 0 0 -1
v -0.277778 -0.171429 0
vn 0 0 -1
v -0.277778 -0.285714 0
vn 0 0 -1
v -0.166667 -0.285714 0
vn 0 0 -1
v -0.0555556 -0.285714 0
vn 0 0 -1
v 0.0555556 -0.285714 0
vn 0 0 -1
v 0.166667 -0.285714 0
vn 0 0 -1
v 0.277778 -0.285714 0
vn 0 0 -1
v 0.388889 -0.285714 0
vn 0 0 -1
v -0.166667 0.285714 0
vn 0 0 -1
v -0.166667 0.171429 0
vn 0 0 -1
v -0.166667 0.0571429 0
vn 0 0 -1
v -0.166667 -0.0571429 0
vn 0 0 -1
v -0.166667 -0.171429 0
vn 0 0 -1
v -0.0555556 0.285714 0
vn 0 0 -1
v -0.0555556 0.171429 0
vn 0 0 -1
v -0.0555556 0.0571429 0
vn 0 0 -1
v -0.0555556 -0.0571429 0
vn 0 0 -1
v -0.0555556 -0.171429 0
vn 0 0 -1
v 0.0555556 0.285714 0
vn 0 0 -1
v 0.0555556 0.171429 0
vn 0 0 -1
v 0.0555556 0.0571429 0
vn 0 0 -1
v 0.0555556 -0.0571429 0
vn 0 0 -1
v 0.0555556 -0.171429 0
vn 0 0 -1
v 0.166667 0.285714 0
vn 0 0 -1
v 0.166667 0.171429 0
vn 0 0 -1
v 0.166667 0.0571429 0
vn 0 0 -1
v 0.166667 -0.0571429 0
vn 0 0 -1
v 0.166667 -0.171429 0
vn 0 0 -1
v 0.277778 0.285714 0
vn 0 0 -1
v 0.277778 0.171429 0
vn 0 0 -1
v 0.277778 0.0571429 0
vn 0 0 -1
v 0.277778 -0.0571429 0
vn 0 0 -1
v 0.277778 -0.171429 0
vn 0 0 -1
v 0.388889 0.285714 0
vn 0 0 -1
v 0.388889 0.171429 0
vn 0 0 -1
v 0.388889 0.0571429 0
vn 0 0 -1
v 0.388889 -0.0571429 0
vn 0 0 -1
v 0.388889 -0.171429 0
vn 0 0 -1
vt 0 0
vt 10 0
vt 0 10
vt 0 10
vt 10 0
vt 11.4286 11.4286
vt 0 10
vt 11.4286 11.4286
vt 0 20
vt 0 20
vt 11.4286 11.4286
vt 11.4286 22.8571
vt 0 20
vt 11.4286 22.8571
vt 0 30
vt 0 30
vt 11.4286 22.8571
vt 11.4286 34.2857
vt 0 30
vt 11.4286 34.2857
vt 0 40
vt 0 40
vt 11.4286 34.2857
vt 11.4286 45.7143
vt 0 40
vt 11.4286 45.7143
vt 0 50
vt 0 50
vt 11.4286 45.7143
vt 11.4286 57.1429
vt 0 50
vt 11.4286 57.1429
vt 0 60
vt 0 60
vt 11.4286 57.1429
vt 11.4286 68.5714
vt 0 60
vt 11.4286 68.5714
vt 0 70
vt 0 70
vt 11.4286 68.5714
vt 10 80
vt 0 70
vt 10 80
vt 0 80
vt 10 0
vt 20 0
vt 11.4286 11.4286
vt 11.4286 11.4286
vt 20 0
vt 22.8571 11.4286
vt 11.4286 11.4286
vt 22.8571 11.4286
vt 11.4286 22.8571
vt 11.4286 22.8571
vt 22.8571 11.4286
vt 22.8571 22.8571
vt 11.4286 22.8571
vt 22.8571 22.8571
vt 11.4286 34.2857
vt 11.4286 34.2857
vt 22.8571 22.8571
vt 22.8571 34.2857
vt 11.4286 34.2857
vt 22.8571 34.2857
vt 11.4286 45.7143
vt 11.4286 45.7143
vt 22.8571 34.2857
vt 22.8571 45.7143
vt 11.4286 45.7143
vt 22.8571 45.7143
vt 11.4286 57.1429
vt 11.4286 57.1429
vt 22.8571 45.7143
vt 22.8571 57.1429
vt 11.4286 57.1429
vt 22.8571 57.1429
vt 11.4286 68.5714
vt 11.4286 68.5714
vt 22.8571 57.1429
vt 22.8571 68.5714
vt 11.4286 68.5714
vt 22.8571 68.5714
vt 20 80
vt 20 80
vt 22.8571 68.5714
vt 30 80
vt 30 80
vt 22.8571 68.5714
vt 34.2857 68.5714
vt 30 80
vt 34.2857 68.5714
vt 40 80
vt 40 80
vt 34.2857 68.5714
vt 45.7143 68.5714
vt 40 80
vt 45.7143 68.5714
vt 50 80
vt 50 80
vt 45.7143 68.5714
vt 57.1429 68.5714
vt 50 80
vt 57.1429 68.5714
vt 60 80
vt 60 80
vt 57.1429 68.5714
vt 68.5714 68.5714
vt 60 80
vt 68.5714 68.5714
vt 70 80
vt 70 80
vt 68.5714 68.5714
vt 80 70
vt 70 80
vt 80 70
vt 80 80
vt 20 0
vt 30 0
vt 22.8571 11.4286
vt 22.8571 11.4286
vt 30 0
vt 34.2857 11.4286
vt 22.8571 11.4286
vt 34.2857 11.4286
vt 22.8571 22.8571
vt 22.8571 22.8571
vt 34.2857 11.4286
vt 34.2857 22.8571
vt 22.8571 22.8571
vt 34.2857 22.8571
vt 22.8571 34.2857
vt 22.8571 34.2857
vt 34.2857 22.8571
vt 34.2857 34.2857
vt 22.8571 34.2857
vt 34.2857 34.2857
vt 22.8571 45.7143
vt 22.8571 45.7143
vt 34.2857 34.2857
vt 34.2857 45.7143
vt 22.8571 45.7143
vt 34.2857 45.7143
vt 22.8571 57.1429
vt 22.8571 57.1429
vt 34.2857 45.7143
vt 34.2857 57.1429
vt 22.8571 57.1429
vt 34.2857 57.1429
vt 22.8571 68.5714
vt 22.8571 68.5714
vt 34.2857 57.1429
vt 34.2857 68.5714
vt 30 0
vt 40 0
vt 34.2857 11.4286
vt 34.2857 11.4286
vt 40 0
vt 45.7143 11.4286
vt 34.2857 11.4286
vt 45.7143 11.4286
vt 34.2857 22.8571
vt 34.2857 22.8571
vt 45.7143 11.4286
vt 45.7143 22.8571
vt 34.2857 22.8571
vt 45.7143 22.8571
vt 34.2857 34.2857
vt 34.2857 34.2857
vt 45.7143 22.8571
vt 45.7143 34.2857
vt 34.2857 34.2857
vt 45.7143 34.2857
vt 34.2857 45.7143
vt 34.2857 45.7143
vt 45.7143 34.2857
vt 45.7143 45.7143
vt 34.2857 45.7143
vt 45.7143 45.7143
vt 34.2857 57.1429
vt 34.2857 57.1429
vt 45.7143 45.7143
vt 45.7143 57.1429
vt 34.2857 57.1429
vt 45.7143 57.1429
vt 34.2857 68.5714
vt 34.2857 68.5714
vt 45.7143 57.1429
vt 45.7143 68.5714
vt 40 0
vt 50 0
vt 45.7143 11.4286
vt 45.7143 11.4286
vt 50 0
vt 57.1429 11.4286
vt 45.7143 11.4286
vt 57.1429 11.4286
vt 45.7143 22.8571
vt 45.7143 22.8571
vt 57.1429 11.4286
vt 57.1429 22.8571
vt 45.7143 22.8571
vt 57.1429 22.8571
vt 45.7143 34.2857
vt 45.7143 34.2857
vt 57.1429 22.8571
vt 57.1429 34.2857
vt 45.7143 34.2857
vt 57.1429 34.2857
vt 45.7143 45.7143
vt 45.7143 45.7143
vt 57.1429 34.2857
vt 57.1429 45.7143
vt 45.7143 45.7143
vt 57.1429 45.7143
vt 45.7143 57.1429
vt 45.7143 57.1429
vt 57.1429 45.7143
vt 57.1429 57.1429
vt 45.7143 57.1429
vt 57.1429 57.1429
vt 45.7143 68.5714
vt 45.7143 68.5714
vt 57.1429 57.1429
vt 57.1429 68.5714
vt 50 0
vt 60 0
vt 57.1429 11.4286
vt 57.1429 11.4286
vt 60 0
vt 68.5714 11.4286
vt 57.1429 11.4286
vt 68.5714 11.4286
vt 57.1429 22.8571
vt 57.1429 22.8571
vt 68.5714 11.4286
vt 68.5714 22.8571
vt 57.1429 22.8571
vt 68.5714 22.8571
vt 57.1429 34.2857
vt 57.1429 34.2857
vt 68.5714 22.8571
vt 68.5714 34.2857
vt 57.1429 34.2857
vt 68.5714 34.2857
vt 57.1429 45.7143
vt 57.1429 45.7143
vt 68.5714 34.2857
vt 68.5714 45.7143
vt 57.1429 45.7143
vt 68.5714 45.7143
vt 57.1429 57.1429
vt 57.1429 57.1429
vt 68.5714 45.7143
vt 68.5714 57.1429
vt 57.1429 57.1429
vt 68.5714 57.1429
vt 57.1429 68.5714
vt 57.1429 68.5714
vt 68.5714 57.1429
vt 68.5714 68.5714
vt 60 0
vt 70 0
vt 68.5714 11.4286
vt 68.5714 11.4286
vt 70 0
vt 80 10
vt 68.5714 11.4286
vt 80 10
vt 80 20
vt 70 0
vt 80 0
vt 80 10
vt 68.5714 11.4286
vt 80 20
vt 68.5714 22.8571
vt 68.5714 22.8571
vt 80 20
vt 80 30
vt 68.5714 22.8571
vt 80 30
vt 68.5714 34.2857
vt 68.5714 34.2857
vt 80 30
vt 80 40
vt 68.5714 34.2857
vt 80 40
vt 68.5714 45.7143
vt 68.5714 45.7143
vt 80 40
vt 80 50
vt 68.5714 45.7143
vt 80 50
vt 68.5714 57.1429
vt 68.5714 57.1429
vt 80 50
vt 80 60
vt 68.5714 57.1429
vt 80 60
vt 68.5714 68.5714
vt 68.5714 68.5714
vt 80 60
vt 80 70
vt 20 80
vt 10 80
vt 11.4286 68.5714
vt 0 0
vt 11.1111 0
vt 5 8.66025
vt 5 8.66025
vt 11.1111 0
vt 10.7692 9.89743
vt 5 8.66025
vt 10.7692 9.89743
vt 10 17.3205
vt 10 17.3205
vt 10.7692 9.89743
vt 21.5385 9.89743
vt 10 17.3205
vt 21.5385 9.89743
vt 21.5385 19.7949
vt 21.5385 19.7949
vt 21.5385 9.89743
vt 32.3077 9.89743
vt 21.5385 19.7949
vt 32.3077 9.89743
vt 32.3077 19.7949
vt 32.3077 19.7949
vt 32.3077 9.89743
vt 43.0769 9.89743
vt 32.3077 19.7949
vt 43.0769 9.89743
vt 43.0769 19.7949
vt 43.0769 19.7949
vt 43.0769 9.89743
vt 53.8462 9.89743
vt 43.0769 19.7949
vt 53.8462 9.89743
vt 53.8462 19.7949
vt 53.8462 19.7949
vt 53.8462 9.89743
vt 64.6154 9.89743
vt 53.8462 19.7949
vt 64.6154 9.89743
vt 64.6154 19.7949
vt 64.6154 19.7949
vt 64.6154 9.89743
vt 75.3846 9.89743
vt 64.6154 19.7949
vt 75.3846 9.89743
vt 75.3846 19.7949
vt 75.3846 19.7949
vt 75.3846 9.89743
vt 86.1538 9.89743
vt 75.3846 19.7949
vt 86.1538 9.89743
vt 86.1538 19.7949
vt 86.1538 19.7949
vt 86.1538 9.89743
vt 96.9231 9.89743
vt 86.1538 19.7949
vt 96.9231 9.89743
vt 96.9231 19.7949
vt 96.9231 19.7949
vt 96.9231 9.89743
vt 107.692 19.7949
vt 96.9231 19.7949
vt 107.692 19.7949
vt 96.9231 29.6923
vt 96.9231 29.6923
vt 107.692 19.7949
vt 107.692 29.6923
vt 96.9231 29.6923
vt 107.692 29.6923
vt 96.9231 39.5897
vt 96.9231 39.5897
vt 107.692 29.6923
vt 107.692 39.5897
vt 96.9231 39.5897
vt 107.692 39.5897
vt 96.9231 49.4872
vt 96.9231 49.4872
vt 107.692 39.5897
vt 107.692 49.4872
vt 96.9231 49.4872
vt 107.692 49.4872
vt 96.9231 59.3846
vt 96.9231 59.3846
vt 107.692 49.4872
vt 107.692 59.3846
vt 96.9231 59.3846
vt 107.692 59.3846
vt 106.667 69.282
vt 106.667 69.282
vt 107.692 59.3846
vt 117.778 69.282
vt 117.778 69.282
vt 107.692 59.3846
vt 118.462 59.3846
vt 117.778 69.282
vt 118.462 59.3846
vt 128.889 69.282
vt 128.889 69.282
vt 118.462 59.3846
vt 129.231 59.3846
vt 128.889 69.282
vt 129.231 59.3846
vt 135 60.6218
vt 135 60.6218
vt 129.231 59.3846
vt 130 51.9615
vt 130 51.9615
vt 129.231 59.3846
vt 118.462 59.3846
vt 130 51.9615
vt 118.462 59.3846
vt 118.462 49.4872
vt 118.462 49.4872
vt 118.462 59.3846
vt 107.692 59.3846
vt 118.462 49.4872
vt 107.692 59.3846
vt 107.692 49.4872
vt 10.7692 9.89743
vt 11.1111 0
vt 21.5385 9.89743
vt 21.5385 9.89743
vt 11.1111 0
vt 22.2222 0
vt 21.5385 9.89743
vt 22.2222 0
vt 32.3077 9.89743
vt 32.3077 9.89743
vt 22.2222 0
vt 33.3333 0
vt 32.3077 9.89743
vt 33.3333 0
vt 43.0769 9.89743
vt 43.0769 9.89743
vt 33.3333 0
vt 44.4444 0
vt 43.0769 9.89743
vt 44.4444 0
vt 53.8462 9.89743
vt 53.8462 9.89743
vt 44.4444 0
vt 55.5556 0
vt 53.8462 9.89743
vt 55.5556 0
vt 64.6154 9.89743
vt 64.6154 9.89743
vt 55.5556 0
vt 66.6667 0
vt 64.6154 9.89743
vt 66.6667 0
vt 75.3846 9.89743
vt 75.3846 9.89743
vt 66.6667 0
vt 77.7778 0
vt 75.3846 9.89743
vt 77.7778 0
vt 86.1538 9.89743
vt 86.1538 9.89743
vt 77.7778 0
vt 88.8889 0
vt 86.1538 9.89743
vt 88.8889 0
vt 96.9231 9.89743
vt 96.9231 9.89743
vt 88.8889 0
vt 100 0
vt 96.9231 9.89743
vt 100 0
vt 105 8.66025
vt 96.9231 9.89743
vt 105 8.66025
vt 107.692 19.7949
vt 107.692 19.7949
vt 105 8.66025
vt 110 17.3205
vt 107.692 19.7949
vt 110 17.3205
vt 115 25.9808
vt 107.692 19.7949
vt 115 25.9808
vt 107.692 29.6923
vt 107.692 29.6923
vt 115 25.9808
vt 120 34.641
vt 107.692 29.6923
vt 120 34.641
vt 107.692 39.5897
vt 107.692 39.5897
vt 120 34.641
vt 118.462 39.5897
vt 107.692 39.5897
vt 118.462 39.5897
vt 107.692 49.4872
vt 107.692 49.4872
vt 118.462 39.5897
vt 118.462 49.4872
vt 120 34.641
vt 125 43.3013
vt 118.462 39.5897
vt 118.462 39.5897
vt 125 43.3013
vt 118.462 49.4872
vt 125 43.3013
vt 130 51.9615
vt 118.462 49.4872
vt 135 60.6218
vt 140 69.282
vt 128.889 69.282
vt 106.667 69.282
vt 95.5556 69.282
vt 96.9231 59.3846
vt 96.9231 59.3846
vt 95.5556 69.282
vt 86.1538 59.3846
vt 96.9231 59.3846
vt 86.1538 59.3846
vt 96.9231 49.4872
vt 96.9231 49.4872
vt 86.1538 59.3846
vt 86.1538 49.4872
vt 96.9231 49.4872
vt 86.1538 49.4872
vt 96.9231 39.5897
vt 96.9231 39.5897
vt 86.1538 49.4872
vt 86.1538 39.5897
vt 96.9231 39.5897
vt 86.1538 39.5897
vt 96.9231 29.6923
vt 96.9231 29.6923
vt 86.1538 39.5897
vt 86.1538 29.6923
vt 96.9231 29.6923
vt 86.1538 29.6923
vt 96.9231 19.7949
vt 96.9231 19.7949
vt 86.1538 29.6923
vt 86.1538 19.7949
vt 95.5556 69.282
vt 84.4444 69.282
vt 86.1538 59.3846
vt 86.1538 59.3846
vt 84.4444 69.282
vt 75.3846 59.3846
vt 86.1538 59.3846
vt 75.3846 59.3846
vt 86.1538 49.4872
vt 86.1538 49.4872
vt 75.3846 59.3846
vt 75.3846 49.4872
vt 86.1538 49.4872
vt 75.3846 49.4872
vt 86.1538 39.5897
vt 86.1538 39.5897
vt 75.3846 49.4872
vt 75.3846 39.5897
vt 86.1538 39.5897
vt 75.3846 39.5897
vt 86.1538 29.6923
vt 86.1538 29.6923
vt 75.3846 39.5897
vt 75.3846 29.6923
vt 86.1538 29.6923
vt 75.3846 29.6923
vt 86.1538 19.7949
vt 86.1538 19.7949
vt 75.3846 29.6923
vt 75.3846 19.7949
vt 84.4444 69.282
vt 73.3333 69.282
vt 75.3846 59.3846
vt 75.3846 59.3846
vt 73.3333 69.282
vt 64.6154 59.3846
vt 75.3846 59.3846
vt 64.6154 59.3846
vt 75.3846 49.4872
vt 75.3846 49.4872
vt 64.6154 59.3846
vt 64.6154 49.4872
vt 75.3846 49.4872
vt 64.6154 49.4872
vt 75.3846 39.5897
vt 75.3846 39.5897
vt 64.6154 49.4872
vt 64.6154 39.5897
vt 75.3846 39.5897
vt 64.6154 39.5897
vt 75.3846 29.6923
vt 75.3846 29.6923
vt 64.6154 39.5897
vt 64.6154 29.6923
vt 75.3846 29.6923
vt 64.6154 29.6923
vt 75.3846 19.7949
vt 75.3846 19.7949
vt 64.6154 29.6923
vt 64.6154 19.7949
vt 73.3333 69.282
vt 62.2222 69.282
vt 64.6154 59.3846
vt 64.6154 59.3846
vt 62.2222 69.282
vt 53.8462 59.3846
vt 64.6154 59.3846
vt 53.8462 59.3846
vt 64.6154 49.4872
vt 64.6154 49.4872
vt 53.8462 59.3846
vt 53.8462 49.4872
vt 64.6154 49.4872
vt 53.8462 49.4872
vt 64.6154 39.5897
vt 64.6154 39.5897
vt 53.8462 49.4872
vt 53.8462 39.5897
vt 64.6154 39.5897
vt 53.8462 39.5897
vt 64.6154 29.6923
vt 64.6154 29.6923
vt 53.8462 39.5897
vt 53.8462 29.6923
vt 64.6154 29.6923
vt 53.8462 29.6923
vt 64.6154 19.7949
vt 64.6154 19.7949
vt 53.8462 29.6923
vt 53.8462 19.7949
vt 62.2222 69.282
vt 51.1111 69.282
vt 53.8462 59.3846
vt 53.8462 59.3846
vt 51.1111 69.282
vt 43.0769 59.3846
vt 53.8462 59.3846
vt 43.0769 59.3846
vt 53.8462 49.4872
vt 53.8462 49.4872
vt 43.0769 59.3846
vt 43.0769 49.4872
vt 53.8462 49.4872
vt 43.0769 49.4872
vt 53.8462 39.5897
vt 53.8462 39.5897
vt 43.0769 49.4872
vt 43.0769 39.5897
vt 53.8462 39.5897
vt 43.0769 39.5897
vt 53.8462 29.6923
vt 53.8462 29.6923
vt 43.0769 39.5897
vt 43.0769 29.6923
vt 53.8462 29.6923
vt 43.0769 29.6923
vt 53.8462 19.7949
vt 53.8462 19.7949
vt 43.0769 29.6923
vt 43.0769 19.7949
vt 51.1111 69.282
vt 40 69.282
vt 43.0769 59.3846
vt 43.0769 59.3846
vt 40 69.282
vt 35 60.6218
vt 43.0769 59.3846
vt 35 60.6218
vt 32.3077 49.4872
vt 32.3077 49.4872
vt 35 60.6218
vt 30 51.9615
vt 32.3077 49.4872
vt 30 51.9615
vt 25 43.3013
vt 32.3077 49.4872
vt 25 43.3013
vt 32.3077 39.5897
vt 32.3077 39.5897
vt 25 43.3013
vt 20 34.641
vt 32.3077 39.5897
vt 20 34.641
vt 32.3077 29.6923
vt 32.3077 29.6923
vt 20 34.641
vt 21.5385 29.6923
vt 32.3077 29.6923
vt 21.5385 29.6923
vt 32.3077 19.7949
vt 32.3077 19.7949
vt 21.5385 29.6923
vt 21.5385 19.7949
vt 20 34.641
vt 15 25.9808
vt 21.5385 29.6923
vt 21.5385 29.6923
vt 15 25.9808
vt 21.5385 19.7949
vt 15 25.9808
vt 10 17.3205
vt 21.5385 19.7949
vt 32.3077 29.6923
vt 32.3077 19.7949
vt 43.0769 19.7949
vt 32.3077 29.6923
vt 43.0769 19.7949
vt 43.0769 29.6923
vt 32.3077 39.5897
vt 32.3077 29.6923
vt 43.0769 29.6923
vt 32.3077 39.5897
vt 43.0769 29.6923
vt 43.0769 39.5897
vt 32.3077 49.4872
vt 32.3077 39.5897
vt 43.0769 39.5897
vt 32.3077 49.4872
vt 43.0769 39.5897
vt 43.0769 49.4872
vt 43.0769 59.3846
vt 32.3077 49.4872
vt 43.0769 49.4872
vt -0 0
vt 10 0
vt -0 10
vt -0 10
vt 10 0
vt 11.4286 11.4286
vt -0 10
vt 11.4286 11.4286
vt -0 20
vt -0 20
vt 11.4286 11.4286
vt 11.4286 22.8571
vt -0 20
vt 11.4286 22.8571
vt -0 30
vt -0 30
vt 11.4286 22.8571
vt 11.4286 34.2857
vt -0 30
vt 11.4286 34.2857
vt -0 40
vt -0 40
vt 11.4286 34.2857
vt 11.4286 45.7143
vt -0 40
vt 11.4286 45.7143
vt -0 50
vt -0 50
vt 11.4286 45.7143
vt 11.4286 57.1429
vt -0 50
vt 11.4286 57.1429
vt -0 60
vt -0 60
vt 11.4286 57.1429
vt 11.4286 68.5714
vt -0 60
vt 11.4286 68.5714
vt -0 70
vt -0 70
vt 11.4286 68.5714
vt 10 80
vt -0 70
vt 10 80
vt -0 80
vt 10 0
vt 20 0
vt 11.4286 11.4286
vt 11.4286 11.4286
vt 20 0
vt 22.8571 11.4286
vt 11.4286 11.4286
vt 22.8571 11.4286
vt 11.4286 22.8571
vt 11.4286 22.8571
vt 22.8571 11.4286
vt 22.8571 22.8571
vt 11.4286 22.8571
vt 22.8571 22.8571
vt 11.4286 34.2857
vt 11.4286 34.2857
vt 22.8571 22.8571
vt 22.8571 34.2857
vt 11.4286 34.2857
vt 22.8571 34.2857
vt 11.4286 45.7143
vt 11.4286 45.7143
vt 22.8571 34.2857
vt 22.8571 45.7143
vt 11.4286 45.7143
vt 22.8571 45.7143
vt 11.4286 57.1429
vt 11.4286 57.1429
vt 22.8571 45.7143
vt 22.8571 57.1429
vt 11.4286 57.1429
vt 22.8571 57.1429
vt 11.4286 68.5714
vt 11.4286 68.5714
vt 22.8571 57.1429
vt 22.8571 68.5714
vt 11.4286 68.5714
vt 22.8571 68.5714
vt 20 80
vt 20 80
vt 22.8571 68.5714
vt 30 80
vt 30 80
vt 22.8571 68.5714
vt 34.2857 68.5714
vt 30 80
vt 34.2857 68.5714
vt 40 80
vt 40 80
vt 34.2857 68.5714
vt 45.7143 68.5714
vt 40 80
vt 45.7143 68.5714
vt 50 80
vt 50 80
vt 45.7143 68.5714
vt 57.1429 68.5714
vt 50 80
vt 57.1429 68.5714
vt 60 80
vt 60 80
vt 57.1429 68.5714
vt 68.5714 68.5714
vt 60 80
vt 68.5714 68.5714
vt 70 80
vt 70 80
vt 68.5714 68.5714
vt 80 70
vt 70 80
vt 80 70
vt 80 80
vt 20 0
vt 30 0
vt 22.8571 11.4286
vt 22.8571 11.4286
vt 30 0
vt 34.2857 11.4286
vt 22.8571 11.4286
vt 34.2857 11.4286
vt 22.8571 22.8571
vt 22.8571 22.8571
vt 34.2857 11.4286
vt 34.2857 22.8571
vt 22.8571 22.8571
vt 34.2857 22.8571
vt 22.8571 34.2857
vt 22.8571 34.2857
vt 34.2857 22.8571
vt 34.2857 34.2857
vt 22.8571 34.2857
vt 34.2857 34.2857
vt 22.8571 45.7143
vt 22.8571 45.7143
vt 34.2857 34.2857
vt 34.2857 45.7143
vt 22.8571 45.7143
vt 34.2857 45.7143
vt 22.8571 57.1429
vt 22.8571 57.1429
vt 34.2857 45.7143
vt 34.2857 57.1429
vt 22.8571 57.1429
vt 34.2857 57.1429
vt 22.8571 68.5714
vt 22.8571 68.5714
vt 34.2857 57.1429
vt 34.2857 68.5714
vt 30 0
vt 40 0
vt 34.2857 11.4286
vt 34.2857 11.4286
vt 40 0
vt 45.7143 11.4286
vt 34.2857 11.4286
vt 45.7143 11.4286
vt 34.2857 22.8571
vt 34.2857 22.8571
vt 45.7143 11.4286
vt 45.7143 22.8571
vt 34.2857 22.8571
vt 45.7143 22.8571
vt 34.2857 34.2857
vt 34.2857 34.2857
vt 45.7143 22.8571
vt 45.7143 34.2857
vt 34.2857 34.2857
vt 45.7143 34.2857
vt 34.2857 45.7143
vt 34.2857 45.7143
vt 45.7143 34.2857
vt 45.7143 45.7143
vt 34.2857 45.7143
vt 45.7143 45.7143
vt 34.2857 57.1429
vt 34.2857 57.1429
vt 45.7143 45.7143
vt 45.7143 57.1429
vt 34.2857 57.1429
vt 45.7143 57.1429
vt 34.2857 68.5714
vt 34.2857 68.5714
vt 45.7143 57.1429
vt 45.7143 68.5714
vt 40 0
vt 50 0
vt 45.7143 11.4286
vt 45.7143 11.4286
vt 50 0
vt 57.1429 11.4286
vt 45.7143 11.4286
vt 57.1429 11.4286
vt 45.7143 22.8571
vt 45.7143 22.8571
vt 57.1429 11.4286
vt 57.1429 22.8571
vt 45.7143 22.8571
vt 57.1429 22.8571
vt 45.7143 34.2857
vt 45.7143 34.2857
vt 57.1429 22.8571
vt 57.1429 34.2857
vt 45.7143 34.2857
vt 57.1429 34.2857
vt 45.7143 45.7143
vt 45.7143 45.7143
vt 57.1429 34.2857
vt 57.1429 45.7143
vt 45.7143 45.7143
vt 57.1429 45.7143
vt 45.7143 57.1429
vt 45.7143 57.1429
vt 57.1429 45.7143
vt 57.1429 57.1429
vt 45.7143 57.1429
vt 57.1429 57.1429
vt 45.7143 68.5714
vt 45.7143 68.5714
vt 57.1429 57.1429
vt 57.1429 68.5714
vt 50 0
vt 60 0
vt 57.1429 11.4286
vt 57.1429 11.4286
vt 60 0
vt 68.5714 11.4286
vt 57.1429 11.4286
vt 68.5714 11.4286
vt 57.1429 22.8571
vt 57.1429 22.8571
vt 68.5714 11.4286
vt 68.5714 22.8571
vt 57.1429 22.8571
vt 68.5714 22.8571
vt 57.1429 34.2857
vt 57.1429 34.2857
vt 68.5714 22.8571
vt 68.5714 34.2857
vt 57.1429 34.2857
vt 68.5714 34.2857
vt 57.1429 45.7143
vt 57.1429 45.7143
vt 68.5714 34.2857
vt 68.5714 45.7143
vt 57.1429 45.7143
vt 68.5714 45.7143
vt 57.1429 57.1429
vt 57.1429 57.1429
vt 68.5714 45.7143
vt 68.5714 57.1429
vt 57.1429 57.1429
vt 68.5714 57.1429
vt 57.1429 68.5714
vt 57.1429 68.5714
vt 68.5714 57.1429
vt 68.5714 68.5714
vt 60 0
vt 70 0
vt 68.5714 11.4286
vt 68.5714 11.4286
vt 70 0
vt 80 10
vt 68.5714 11.4286
vt 80 10
vt 80 20
vt 70 0
vt 80 0
vt 80 10
vt 68.5714 11.4286
vt 80 20
vt 68.5714 22.8571
vt 68.5714 22.8571
vt 80 20
vt 80 30
vt 68.5714 22.8571
vt 80 30
vt 68.5714 34.2857
vt 68.5714 34.2857
vt 80 30
vt 80 40
vt 68.5714 34.2857
vt 80 40
vt 68.5714 45.7143
vt 68.5714 45.7143
vt 80 40
vt 80 50
vt 68.5714 45.7143
vt 80 50
vt 68.5714 57.1429
vt 68.5714 57.1429
vt 80 50
vt 80 60
vt 68.5714 57.1429
vt 80 60
vt 68.5714 68.5714
vt 68.5714 68.5714
vt 80 60
vt 80 70
vt 20 80
vt 10 80
vt 11.4286 68.5714
vt -5 8.66025
vt -0 0
vt 3.07692 9.89743
vt 3.07692 9.89743
vt -0 0
vt 11.1111 0
vt 3.07692 9.89743
vt 11.1111 0
vt 13.8462 9.89743
vt 13.8462 9.89743
vt 11.1111 0
vt 22.2222 0
vt 13.8462 9.89743
vt 22.2222 0
vt 24.6154 9.89743
vt 24.6154 9.89743
vt 22.2222 0
vt 33.3333 0
vt 24.6154 9.89743
vt 33.3333 0
vt 35.3846 9.89743
vt 35.3846 9.89743
vt 33.3333 0
vt 44.4444 0
vt 35.3846 9.89743
vt 44.4444 0
vt 46.1538 9.89743
vt 46.1538 9.89743
vt 44.4444 0
vt 55.5556 0
vt 46.1538 9.89743
vt 55.5556 0
vt 56.9231 9.89743
vt 56.9231 9.89743
vt 55.5556 0
vt 66.6667 0
vt 56.9231 9.89743
vt 66.6667 0
vt 67.6923 9.89743
vt 67.6923 9.89743
vt 66.6667 0
vt 77.7778 0
vt 67.6923 9.89743
vt 77.7778 0
vt 78.4615 9.89743
vt 78.4615 9.89743
vt 77.7778 0
vt 88.8889 0
vt 78.4615 9.89743
vt 88.8889 0
vt 89.2308 9.89743
vt 89.2308 9.89743
vt 88.8889 0
vt 95 8.66025
vt 89.2308 9.89743
vt 95 8.66025
vt 90 17.3205
vt 88.8889 0
vt 100 0
vt 95 8.66025
vt 85 25.9808
vt 78.4615 19.7949
vt 90 17.3205
vt 90 17.3205
vt 78.4615 19.7949
vt 78.4615 9.89743
vt 90 17.3205
vt 78.4615 9.89743
vt 89.2308 9.89743
vt 78.4615 19.7949
vt 85 25.9808
vt 78.4615 29.6923
vt 78.4615 29.6923
vt 85 25.9808
vt 80 34.641
vt 78.4615 29.6923
vt 80 34.641
vt 67.6923 29.6923
vt 67.6923 29.6923
vt 80 34.641
vt 67.6923 39.5897
vt 67.6923 29.6923
vt 67.6923 39.5897
vt 56.9231 39.5897
vt 56.9231 39.5897
vt 67.6923 39.5897
vt 56.9231 49.4872
vt 56.9231 39.5897
vt 56.9231 49.4872
vt 46.1538 49.4872
vt 46.1538 49.4872
vt 56.9231 49.4872
vt 46.1538 59.3846
vt 46.1538 49.4872
vt 46.1538 59.3846
vt 35.3846 59.3846
vt 35.3846 59.3846
vt 46.1538 59.3846
vt 37.7778 69.282
vt 35.3846 59.3846
vt 37.7778 69.282
vt 26.6667 69.282
vt 80 34.641
vt 75 43.3013
vt 67.6923 39.5897
vt 67.6923 39.5897
vt 75 43.3013
vt 67.6923 49.4872
vt 67.6923 39.5897
vt 67.6923 49.4872
vt 56.9231 49.4872
vt 56.9231 49.4872
vt 67.6923 49.4872
vt 56.9231 59.3846
vt 56.9231 49.4872
vt 56.9231 59.3846
vt 46.1538 59.3846
vt 46.1538 59.3846
vt 56.9231 59.3846
vt 48.8889 69.282
vt 46.1538 59.3846
vt 48.8889 69.282
vt 37.7778 69.282
vt 75 43.3013
vt 70 51.9615
vt 67.6923 49.4872
vt 67.6923 49.4872
vt 70 51.9615
vt 65 60.6218
vt 67.6923 49.4872
vt 65 60.6218
vt 56.9231 59.3846
vt 56.9231 59.3846
vt 65 60.6218
vt 60 69.282
vt 56.9231 59.3846
vt 60 69.282
vt 48.8889 69.282
vt 35.3846 59.3846
vt 26.6667 69.282
vt 24.6154 59.3846
vt 24.6154 59.3846
vt 26.6667 69.282
vt 15.5556 69.282
vt 24.6154 59.3846
vt 15.5556 69.282
vt 13.8462 59.3846
vt 13.8462 59.3846
vt 15.5556 69.282
vt 4.44444 69.282
vt 13.8462 59.3846
vt 4.44444 69.282
vt 3.07692 59.3846
vt 3.07692 59.3846
vt 4.44444 69.282
vt -6.66667 69.282
vt 3.07692 59.3846
vt -6.66667 69.282
vt -7.69231 59.3846
vt -7.69231 59.3846
vt -6.66667 69.282
vt -17.7778 69.282
vt -7.69231 59.3846
vt -17.7778 69.282
vt -18.4615 59.3846
vt -18.4615 59.3846
vt -17.7778 69.282
vt -28.8889 69.282
vt -18.4615 59.3846
vt -28.8889 69.282
vt -29.2308 59.3846
vt -29.2308 59.3846
vt -28.8889 69.282
vt -35 60.6218
vt -29.2308 59.3846
vt -35 60.6218
vt -30 51.9615
vt -28.8889 69.282
vt -40 69.282
vt -35 60.6218
vt -25 43.3013
vt -18.4615 49.4872
vt -30 51.9615
vt -30 51.9615
vt -18.4615 49.4872
vt -18.4615 59.3846
vt -30 51.9615
vt -18.4615 59.3846
vt -29.2308 59.3846
vt -18.4615 49.4872
vt -25 43.3013
vt -18.4615 39.5897
vt -18.4615 39.5897
vt -25 43.3013
vt -20 34.641
vt -18.4615 39.5897
vt -20 34.641
vt -7.69231 39.5897
vt -7.69231 39.5897
vt -20 34.641
vt -7.69231 29.6923
vt -7.69231 39.5897
vt -7.69231 29.6923
vt 3.07692 29.6923
vt 3.07692 29.6923
vt -7.69231 29.6923
vt 3.07692 19.7949
vt 3.07692 29.6923
vt 3.07692 19.7949
vt 13.8462 19.7949
vt 13.8462 19.7949
vt 3.07692 19.7949
vt 13.8462 9.89743
vt 13.8462 19.7949
vt 13.8462 9.89743
vt 24.6154 9.89743
vt -20 34.641
vt -15 25.9808
vt -7.69231 29.6923
vt -7.69231 29.6923
vt -15 25.9808
vt -7.69231 19.7949
vt -7.69231 29.6923
vt -7.69231 19.7949
vt 3.07692 19.7949
vt 3.07692 19.7949
vt -7.69231 19.7949
vt 3.07692 9.89743
vt 3.07692 19.7949
vt 3.07692 9.89743
vt 13.8462 9.89743
vt -15 25.9808
vt -10 17.3205
vt -7.69231 19.7949
vt -7.69231 19.7949
vt -10 17.3205
vt -5 8.66025
vt -7.69231 19.7949
vt -5 8.66025
vt 3.07692 9.89743
vt 67.6923 9.89743
vt 78.4615 9.89743
vt 67.6923 19.7949
vt 67.6923 19.7949
vt 78.4615 9.89743
vt 78.4615 19.7949
vt 67.6923 19.7949
vt 78.4615 19.7949
vt 67.6923 29.6923
vt 67.6923 29.6923
vt 78.4615 19.7949
vt 78.4615 29.6923
vt 56.9231 9.89743
vt 67.6923 9.89743
vt 56.9231 19.7949
vt 56.9231 19.7949
vt 67.6923 9.89743
vt 67.6923 19.7949
vt 56.9231 19.7949
vt 67.6923 19.7949
vt 56.9231 29.6923
vt 56.9231 29.6923
vt 67.6923 19.7949
vt 67.6923 29.6923
vt 56.9231 29.6923
vt 67.6923 29.6923
vt 56.9231 39.5897
vt 46.1538 9.89743
vt 56.9231 9.89743
vt 46.1538 19.7949
vt 46.1538 19.7949
vt 56.9231 9.89743
vt 56.9231 19.7949
vt 46.1538 19.7949
vt 56.9231 19.7949
vt 46.1538 29.6923
vt 46.1538 29.6923
vt 56.9231 19.7949
vt 56.9231 29.6923
vt 46.1538 29.6923
vt 56.9231 29.6923
vt 46.1538 39.5897
vt 46.1538 39.5897
vt 56.9231 29.6923
vt 56.9231 39.5897
vt 46.1538 39.5897
vt 56.9231 39.5897
vt 46.1538 49.4872
vt 35.3846 9.89743
vt 46.1538 9.89743
vt 35.3846 19.7949
vt 35.3846 19.7949
vt 46.1538 9.89743
vt 46.1538 19.7949
vt 35.3846 19.7949
vt 46.1538 19.7949
vt 35.3846 29.6923
vt 35.3846 29.6923
vt 46.1538 19.7949
vt 46.1538 29.6923
vt 35.3846 29.6923
vt 46.1538 29.6923
vt 35.3846 39.5897
vt 35.3846 39.5897
vt 46.1538 29.6923
vt 46.1538 39.5897
vt 35.3846 39.5897
vt 46.1538 39.5897
vt 35.3846 49.4872
vt 35.3846 49.4872
vt 46.1538 39.5897
vt 46.1538 49.4872
vt 35.3846 49.4872
vt 46.1538 49.4872
vt 35.3846 59.3846
vt 24.6154 9.89743
vt 35.3846 9.89743
vt 24.6154 19.7949
vt 24.6154 19.7949
vt 35.3846 9.89743
vt 35.3846 19.7949
vt 24.6154 19.7949
vt 35.3846 19.7949
vt 24.6154 29.6923
vt 24.6154 29.6923
vt 35.3846 19.7949
vt 35.3846 29.6923
vt 24.6154 29.6923
vt 35.3846 29.6923
vt 24.6154 39.5897
vt 24.6154 39.5897
vt 35.3846 29.6923
vt 35.3846 39.5897
vt 24.6154 39.5897
vt 35.3846 39.5897
vt 24.6154 49.4872
vt 24.6154 49.4872
vt 35.3846 39.5897
vt 35.3846 49.4872
vt 24.6154 49.4872
vt 35.3846 49.4872
vt 24.6154 59.3846
vt 24.6154 59.3846
vt 35.3846 49.4872
vt 35.3846 59.3846
vt 24.6154 9.89743
vt 24.6154 19.7949
vt 13.8462 19.7949
vt 13.8462 19.7949
vt 24.6154 19.7949
vt 13.8462 29.6923
vt 13.8462 19.7949
vt 13.8462 29.6923
vt 3.07692 29.6923
vt 3.07692 29.6923
vt 13.8462 29.6923
vt 3.07692 39.5897
vt 3.07692 29.6923
vt 3.07692 39.5897
vt -7.69231 39.5897
vt -7.69231 39.5897
vt 3.07692 39.5897
vt -7.69231 49.4872
vt -7.69231 39.5897
vt -7.69231 49.4872
vt -18.4615 49.4872
vt -18.4615 49.4872
vt -7.69231 49.4872
vt -18.4615 59.3846
vt 13.8462 29.6923
vt 24.6154 19.7949
vt 24.6154 29.6923
vt 13.8462 29.6923
vt 24.6154 29.6923
vt 13.8462 39.5897
vt 13.8462 39.5897
vt 24.6154 29.6923
vt 24.6154 39.5897
vt 13.8462 39.5897
vt 24.6154 39.5897
vt 13.8462 49.4872
vt 13.8462 49.4872
vt 24.6154 39.5897
vt 24.6154 49.4872
vt 13.8462 49.4872
vt 24.6154 49.4872
vt 13.8462 59.3846
vt 13.8462 59.3846
vt 24.6154 49.4872
vt 24.6154 59.3846
vt 13.8462 29.6923
vt 13.8462 39.5897
vt 3.07692 39.5897
vt 3.07692 39.5897
vt 13.8462 39.5897
vt 3.07692 49.4872
vt 3.07692 39.5897
vt 3.07692 49.4872
vt -7.69231 49.4872
vt -7.69231 49.4872
vt 3.07692 49.4872
vt -7.69231 59.3846
vt -7.69231 49.4872
vt -7.69231 59.3846
vt -18.4615 59.3846
vt 3.07692 49.4872
vt 13.8462 39.5897
vt 13.8462 49.4872
vt -18.4615 49.4872
vt -18.4615 39.5897
vt -7.69231 39.5897
vt 13.8462 59.3846
vt 3.07692 59.3846
vt 13.8462 49.4872
vt 13.8462 49.4872
vt 3.07692 59.3846
vt 3.07692 49.4872
vt 3.07692 59.3846
vt -7.69231 59.3846
vt 3.07692 49.4872
vt 50 40
vt 38.8889 40
vt 50 30
vt 50 30
vt 38.8889 40
vt 38.8889 28.5714
vt 50 30
vt 38.8889 28.5714
vt 50 20
vt 50 20
vt 38.8889 28.5714
vt 38.8889 17.1429
vt 50 20
vt 38.8889 17.1429
vt 50 10
vt 50 10
vt 38.8889 17.1429
vt 38.8889 5.71429
vt 50 10
vt 38.8889 5.71429
vt 50 0
vt 50 0
vt 38.8889 5.71429
vt 38.8889 -5.71429
vt 50 0
vt 38.8889 -5.71429
vt 50 -10
vt 50 -10
vt 38.8889 -5.71429
vt 38.8889 -17.1429
vt 50 -10
vt 38.8889 -17.1429
vt 50 -20
vt 50 -20
vt 38.8889 -17.1429
vt 38.8889 -28.5714
vt 50 -20
vt 38.8889 -28.5714
vt 50 -30
vt 50 -30
vt 38.8889 -28.5714
vt 38.8889 -40
vt 50 -30
vt 38.8889 -40
vt 50 -40
vt 38.8889 40
vt 27.7778 40
vt 38.8889 28.5714
vt 38.8889 28.5714
vt 27.7778 40
vt 27.7778 28.5714
vt 38.8889 28.5714
vt 27.7778 28.5714
vt 38.8889 17.1429
vt 38.8889 17.1429
vt 27.7778 28.5714
vt 27.7778 17.1429
vt 38.8889 17.1429
vt 27.7778 17.1429
vt 38.8889 5.71429
vt 38.8889 5.71429
vt 27.7778 17.1429
vt 27.7778 5.71429
vt 38.8889 5.71429
vt 27.7778 5.71429
vt 38.8889 -5.71429
vt 38.8889 -5.71429
vt 27.7778 5.71429
vt 27.7778 -5.71429
vt 38.8889 -5.71429
vt 27.7778 -5.71429
vt 38.8889 -17.1429
vt 38.8889 -17.1429
vt 27.7778 -5.71429
vt 27.7778 -17.1429
vt 38.8889 -17.1429
vt 27.7778 -17.1429
vt 38.8889 -28.5714
vt 38.8889 -28.5714
vt 27.7778 -17.1429
vt 27.7778 -28.5714
vt 38.8889 -28.5714
vt 27.7778 -28.5714
vt 38.8889 -40
vt 38.8889 -40
vt 27.7778 -28.5714
vt 27.7778 -40
vt 27.7778 -40
vt 27.7778 -28.5714
vt 16.6667 -28.5714
vt 27.7778 -40
vt 16.6667 -28.5714
vt 16.6667 -40
vt 16.6667 -40
vt 16.6667 -28.5714
vt 5.55556 -28.5714
vt 16.6667 -40
vt 5.55556 -28.5714
vt 5.55556 -40
vt 5.55556 -40
vt 5.55556 -28.5714
vt -5.55556 -28.5714
vt 5.55556 -40
vt -5.55556 -28.5714
vt -5.55556 -40
vt -5.55556 -40
vt -5.55556 -28.5714
vt -16.6667 -28.5714
vt -5.55556 -40
vt -16.6667 -28.5714
vt -16.6667 -40
vt -16.6667 -40
vt -16.6667 -28.5714
vt -27.7778 -28.5714
vt -16.6667 -40
vt -27.7778 -28.5714
vt -27.7778 -40
vt -27.7778 -40
vt -27.7778 -28.5714
vt -38.8889 -28.5714
vt -27.7778 -40
vt -38.8889 -28.5714
vt -38.8889 -40
vt -38.8889 -40
vt -38.8889 -28.5714
vt -50 -30
vt -38.8889 -40
vt -50 -30
vt -50 -40
vt 27.7778 40
vt 16.6667 40
vt 27.7778 28.5714
vt 27.7778 28.5714
vt 16.6667 40
vt 16.6667 28.5714
vt 27.7778 28.5714
vt 16.6667 28.5714
vt 27.7778 17.1429
vt 27.7778 17.1429
vt 16.6667 28.5714
vt 16.6667 17.1429
vt 27.7778 17.1429
vt 16.6667 17.1429
vt 27.7778 5.71429
vt 27.7778 5.71429
vt 16.6667 17.1429
vt 16.6667 5.71429
vt 27.7778 5.71429
vt 16.6667 5.71429
vt 27.7778 -5.71429
vt 27.7778 -5.71429
vt 16.6667 5.71429
vt 16.6667 -5.71429
vt 27.7778 -5.71429
vt 16.6667 -5.71429
vt 27.7778 -17.1429
vt 27.7778 -17.1429
vt 16.6667 -5.71429
vt 16.6667 -17.1429
vt 27.7778 -17.1429
vt 16.6667 -17.1429
vt 27.7778 -28.5714
vt 27.7778 -28.5714
vt 16.6667 -17.1429
vt 16.6667 -28.5714
vt 16.6667 40
vt 5.55556 40
vt 16.6667 28.5714
vt 16.6667 28.5714
vt 5.55556 40
vt 5.55556 28.5714
vt 16.6667 28.5714
vt 5.55556 28.5714
vt 16.6667 17.1429
vt 16.6667 17.1429
vt 5.55556 28.5714
vt 5.55556 17.1429
vt 16.6667 17.1429
vt 5.55556 17.1429
vt 16.6667 5.71429
vt 16.6667 5.71429
vt 5.55556 17.1429
vt 5.55556 5.71429
vt 16.6667 5.71429
vt 5.55556 5.71429
vt 16.6667 -5.71429
vt 16.6667 -5.71429
vt 5.55556 5.71429
vt 5.55556 -5.71429
vt 16.6667 -5.71429
vt 5.55556 -5.71429
vt 16.6667 -17.1429
vt 16.6667 -17.1429
vt 5.55556 -5.71429
vt 5.55556 -17.1429
vt 16.6667 -17.1429
vt 5.55556 -17.1429
vt 16.6667 -28.5714
vt 16.6667 -28.5714
vt 5.55556 -17.1429
vt 5.55556 -28.5714
vt 5.55556 40
vt -5.55556 40
vt 5.55556 28.5714
vt 5.55556 28.5714
vt -5.55556 40
vt -5.55556 28.5714
vt 5.55556 28.5714
vt -5.55556 28.5714
vt 5.55556 17.1429
vt 5.55556 17.1429
vt -5.55556 28.5714
vt -5.55556 17.1429
vt 5.55556 17.1429
vt -5.55556 17.1429
vt 5.55556 5.71429
vt 5.55556 5.71429
vt -5.55556 17.1429
vt -5.55556 5.71429
vt 5.55556 5.71429
vt -5.55556 5.71429
vt 5.55556 -5.71429
vt 5.55556 -5.71429
vt -5.55556 5.71429
vt -5.55556 -5.71429
vt 5.55556 -5.71429
vt -5.55556 -5.71429
vt 5.55556 -17.1429
vt 5.55556 -17.1429
vt -5.55556 -5.71429
vt -5.55556 -17.1429
vt 5.55556 -17.1429
vt -5.55556 -17.1429
vt 5.55556 -28.5714
vt 5.55556 -28.5714
vt -5.55556 -17.1429
vt -5.55556 -28.5714
vt -5.55556 40
vt -16.6667 40
vt -5.55556 28.5714
vt -5.55556 28.5714
vt -16.6667 40
vt -16.6667 28.5714
vt -5.55556 28.5714
vt -16.6667 28.5714
vt -5.55556 17.1429
vt -5.55556 17.1429
vt -16.6667 28.5714
vt -16.6667 17.1429
vt -5.55556 17.1429
vt -16.6667 17.1429
vt -5.55556 5.71429
vt -5.55556 5.71429
vt -16.6667 17.1429
vt -16.6667 5.71429
vt -5.55556 5.71429
vt -16.6667 5.71429
vt -5.55556 -5.71429
vt -5.55556 -5.71429
vt -16.6667 5.71429
vt -16.6667 -5.71429
vt -5.55556 -5.71429
vt -16.6667 -5.71429
vt -5.55556 -17.1429
vt -5.55556 -17.1429
vt -16.6667 -5.71429
vt -16.6667 -17.1429
vt -5.55556 -17.1429
vt -16.6667 -17.1429
vt -5.55556 -28.5714
vt -5.55556 -28.5714
vt -16.6667 -17.1429
vt -16.6667 -28.5714
vt -16.6667 40
vt -27.7778 40
vt -16.6667 28.5714
vt -16.6667 28.5714
vt -27.7778 40
vt -27.7778 28.5714
vt -16.6667 28.5714
vt -27.7778 28.5714
vt -16.6667 17.1429
vt -16.6667 17.1429
vt -27.7778 28.5714
vt -27.7778 17.1429
vt -16.6667 17.1429
vt -27.7778 17.1429
vt -16.6667 5.71429
vt -16.6667 5.71429
vt -27.7778 17.1429
vt -27.7778 5.71429
vt -16.6667 5.71429
vt -27.7778 5.71429
vt -16.6667 -5.71429
vt -16.6667 -5.71429
vt -27.7778 5.71429
vt -27.7778 -5.71429
vt -16.6667 -5.71429
vt -27.7778 -5.71429
vt -16.6667 -17.1429
vt -16.6667 -17.1429
vt -27.7778 -5.71429
vt -27.7778 -17.1429
vt -16.6667 -17.1429
vt -27.7778 -17.1429
vt -16.6667 -28.5714
vt -16.6667 -28.5714
vt -27.7778 -17.1429
vt -27.7778 -28.5714
vt -27.7778 40
vt -38.8889 40
vt -27.7778 28.5714
vt -27.7778 28.5714
vt -38.8889 40
vt -38.8889 28.5714
vt -27.7778 28.5714
vt -38.8889 28.5714
vt -27.7778 17.1429
vt -27.7778 17.1429
vt -38.8889 28.5714
vt -38.8889 17.1429
vt -27.7778 17.1429
vt -38.8889 17.1429
vt -27.7778 5.71429
vt -27.7778 5.71429
vt -38.8889 17.1429
vt -38.8889 5.71429
vt -27.7778 5.71429
vt -38.8889 5.71429
vt -27.7778 -5.71429
vt -27.7778 -5.71429
vt -38.8889 5.71429
vt -38.8889 -5.71429
vt -27.7778 -5.71429
vt -38.8889 -5.71429
vt -27.7778 -17.1429
vt -27.7778 -17.1429
vt -38.8889 -5.71429
vt -38.8889 -17.1429
vt -27.7778 -17.1429
vt -38.8889 -17.1429
vt -27.7778 -28.5714
vt -27.7778 -28.5714
vt -38.8889 -17.1429
vt -38.8889 -28.5714
vt -50 40
vt -50 30
vt -38.8889 40
vt -38.8889 40
vt -50 30
vt -38.8889 28.5714
vt -50 30
vt -50 20
vt -38.8889 28.5714
vt -38.8889 28.5714
vt -50 20
vt -38.8889 17.1429
vt -50 20
vt -50 10
vt -38.8889 17.1429
vt -38.8889 17.1429
vt -50 10
vt -38.8889 5.71429
vt -50 10
vt -50 0
vt -38.8889 5.71429
vt -38.8889 5.71429
vt -50 0
vt -38.8889 -5.71429
vt -50 0
vt -50 -10
vt -38.8889 -5.71429
vt -38.8889 -5.71429
vt -50 -10
vt -38.8889 -17.1429
vt -50 -10
vt -50 -20
vt -38.8889 -17.1429
vt -38.8889 -17.1429
vt -50 -20
vt -38.8889 -28.5714
vt -50 -20
vt -50 -30
vt -38.8889 -28.5714
vt 50 40
vt 38.8889 40
vt 50 30
vt 50 30
vt 38.8889 40
vt 38.8889 28.5714
vt 50 30
vt 38.8889 28.5714
vt 50 20
vt 50 20
vt 38.8889 28.5714
vt 38.8889 17.1429
vt 50 20
vt 38.8889 17.1429
vt 50 10
vt 50 10
vt 38.8889 17.1429
vt 38.8889 5.71429
vt 50 10
vt 38.8889 5.71429
vt 50 0
vt 50 0
vt 38.8889 5.71429
vt 38.8889 -5.71429
vt 50 0
vt 38.8889 -5.71429
vt 50 -10
vt 50 -10
vt 38.8889 -5.71429
vt 38.8889 -17.1429
vt 50 -10
vt 38.8889 -17.1429
vt 50 -20
vt 50 -20
vt 38.8889 -17.1429
vt 38.8889 -28.5714
vt 50 -20
vt 38.8889 -28.5714
vt 50 -30
vt 50 -30
vt 38.8889 -28.5714
vt 38.8889 -40
vt 50 -30
vt 38.8889 -40
vt 50 -40
vt 38.8889 40
vt 27.7778 40
vt 38.8889 28.5714
vt 38.8889 28.5714
vt 27.7778 40
vt 27.7778 28.5714
vt 38.8889 28.5714
vt 27.7778 28.5714
vt 38.8889 17.1429
vt 38.8889 17.1429
vt 27.7778 28.5714
vt 27.7778 17.1429
vt 38.8889 17.1429
vt 27.7778 17.1429
vt 38.8889 5.71429
vt 38.8889 5.71429
vt 27.7778 17.1429
vt 27.7778 5.71429
vt 38.8889 5.71429
vt 27.7778 5.71429
vt 38.8889 -5.71429
vt 38.8889 -5.71429
vt 27.7778 5.71429
vt 27.7778 -5.71429
vt 38.8889 -5.71429
vt 27.7778 -5.71429
vt 38.8889 -17.1429
vt 38.8889 -17.1429
vt 27.7778 -5.71429
vt 27.7778 -17.1429
vt 38.8889 -17.1429
vt 27.7778 -17.1429
vt 38.8889 -28.5714
vt 38.8889 -28.5714
vt 27.7778 -17.1429
vt 27.7778 -28.5714
vt 38.8889 -28.5714
vt 27.7778 -28.5714
vt 38.8889 -40
vt 38.8889 -40
vt 27.7778 -28.5714
vt 27.7778 -40
vt 27.7778 -40
vt 27.7778 -28.5714
vt 16.6667 -28.5714
vt 27.7778 -40
vt 16.6667 -28.5714
vt 16.6667 -40
vt 16.6667 -40
vt 16.6667 -28.5714
vt 5.55556 -28.5714
vt 16.6667 -40
vt 5.55556 -28.5714
vt 5.55556 -40
vt 5.55556 -40
vt 5.55556 -28.5714
vt -5.55556 -28.5714
vt 5.55556 -40
vt -5.55556 -28.5714
vt -5.55556 -40
vt -5.55556 -40
vt -5.55556 -28.5714
vt -16.6667 -28.5714
vt -5.55556 -40
vt -16.6667 -28.5714
vt -16.6667 -40
vt -16.6667 -40
vt -16.6667 -28.5714
vt -27.7778 -28.5714
vt -16.6667 -40
vt -27.7778 -28.5714
vt -27.7778 -40
vt -27.7778 -40
vt -27.7778 -28.5714
vt -38.8889 -28.5714
vt -27.7778 -40
vt -38.8889 -28.5714
vt -38.8889 -40
vt -38.8889 -40
vt -38.8889 -28.5714
vt -50 -30
vt -38.8889 -40
vt -50 -30
vt -50 -40
vt 27.7778 40
vt 16.6667 40
vt 27.7778 28.5714
vt 27.7778 28.5714
vt 16.6667 40
vt 16.6667 28.5714
vt 27.7778 28.5714
vt 16.6667 28.5714
vt 27.7778 17.1429
vt 27.7778 17.1429
vt 16.6667 28.5714
vt 16.6667 17.1429
vt 27.7778 17.1429
vt 16.6667 17.1429
vt 27.7778 5.71429
vt 27.7778 5.71429
vt 16.6667 17.1429
vt 16.6667 5.71429
vt 27.7778 5.71429
vt 16.6667 5.71429
vt 27.7778 -5.71429
vt 27.7778 -5.71429
vt 16.6667 5.71429
vt 16.6667 -5.71429
vt 27.7778 -5.71429
vt 16.6667 -5.71429
vt 27.7778 -17.1429
vt 27.7778 -17.1429
vt 16.6667 -5.71429
vt 16.6667 -17.1429
vt 27.7778 -17.1429
vt 16.6667 -17.1429
vt 27.7778 -28.5714
vt 27.7778 -28.5714
vt 16.6667 -17.1429
vt 16.6667 -28.5714
vt 16.6667 40
vt 5.55556 40
vt 16.6667 28.5714
vt 16.6667 28.5714
vt 5.55556 40
vt 5.55556 28.5714
vt 16.6667 28.5714
vt 5.55556 28.5714
vt 16.6667 17.1429
vt 16.6667 17.1429
vt 5.55556 28.5714
vt 5.55556 17.1429
vt 16.6667 17.1429
vt 5.55556 17.1429
vt 16.6667 5.71429
vt 16.6667 5.71429
vt 5.55556 17.1429
vt 5.55556 5.71429
vt 16.6667 5.71429
vt 5.55556 5.71429
vt 16.6667 -5.71429
vt 16.6667 -5.71429
vt 5.55556 5.71429
vt 5.55556 -5.71429
vt 16.6667 -5.71429
vt 5.55556 -5.71429
vt 16.6667 -17.1429
vt 16.6667 -17.1429
vt 5.55556 -5.71429
vt 5.55556 -17.1429
vt 16.6667 -17.1429
vt 5.55556 -17.1429
vt 16.6667 -28.5714
vt 16.6667 -28.5714
vt 5.55556 -17.1429
vt 5.55556 -28.5714
vt 5.55556 40
vt -5.55556 40
vt 5.55556 28.5714
vt 5.55556 28.5714
vt -5.55556 40
vt -5.55556 28.5714
vt 5.55556 28.5714
vt -5.55556 28.5714
vt 5.55556 17.1429
vt 5.55556 17.1429
vt -5.55556 28.5714
vt -5.55556 17.1429
vt 5.55556 17.1429
vt -5.55556 17.1429
vt 5.55556 5.71429
vt 5.55556 5.71429
vt -5.55556 17.1429
vt -5.55556 5.71429
vt 5.55556 5.71429
vt -5.55556 5.71429
vt 5.55556 -5.71429
vt 5.55556 -5.71429
vt -5.55556 5.71429
vt -5.55556 -5.71429
vt 5.55556 -5.71429
vt -5.55556 -5.71429
vt 5.55556 -17.1429
vt 5.55556 -17.1429
vt -5.55556 -5.71429
vt -5.55556 -17.1429
vt 5.55556 -17.1429
vt -5.55556 -17.1429
vt 5.55556 -28.5714
vt 5.55556 -28.5714
vt -5.55556 -17.1429
vt -5.55556 -28.5714
vt -5.55556 40
vt -16.6667 40
vt -5.55556 28.5714
vt -5.55556 28.5714
vt -16.6667 40
vt -16.6667 28.5714
vt -5.55556 28.5714
vt -16.6667 28.5714
vt -5.55556 17.1429
vt -5.55556 17.1429
vt -16.6667 28.5714
vt -16.6667 17.1429
vt -5.55556 17.1429
vt -16.6667 17.1429
vt -5.55556 5.71429
vt -5.55556 5.71429
vt -16.6667 17.1429
vt -16.6667 5.71429
vt -5.55556 5.71429
vt -16.6667 5.71429
vt -5.55556 -5.71429
vt -5.55556 -5.71429
vt -16.6667 5.71429
vt -16.6667 -5.71429
vt -5.55556 -5.71429
vt -16.6667 -5.71429
vt -5.55556 -17.1429
vt -5.55556 -17.1429
vt -16.6667 -5.71429
vt -16.6667 -17.1429
vt -5.55556 -17.1429
vt -16.6667 -17.1429
vt -5.55556 -28.5714
vt -5.55556 -28.5714
vt -16.6667 -17.1429
vt -16.6667 -28.5714
vt -16.6667 40
vt -27.7778 40
vt -16.6667 28.5714
vt -16.6667 28.5714
vt -27.7778 40
vt -27.7778 28.5714
vt -16.6667 28.5714
vt -27.7778 28.5714
vt -16.6667 17.1429
vt -16.6667 17.1429
vt -27.7778 28.5714
vt -27.7778 17.1429
vt -16.6667 17.1429
vt -27.7778 17.1429
vt -16.6667 5.71429
vt -16.6667 5.71429
vt -27.7778 17.1429
vt -27.7778 5.71429
vt -16.6667 5.71429
vt -27.7778 5.71429
vt -16.6667 -5.71429
vt -16.6667 -5.71429
vt -27.7778 5.71429
vt -27.7778 -5.71429
vt -16.6667 -5.71429
vt -27.7778 -5.71429
vt -16.6667 -17.1429
vt -16.6667 -17.1429
vt -27.7778 -5.71429
vt -27.7778 -17.1429
vt -16.6667 -17.1429
vt -27.7778 -17.1429
vt -16.6667 -28.5714
vt -16.6667 -28.5714
vt -27.7778 -17.1429
vt -27.7778 -28.5714
vt -27.7778 40
vt -38.8889 40
vt -27.7778 28.5714
vt -27.7778 28.5714
vt -38.8889 40
vt -38.8889 28.5714
vt -27.7778 28.5714
vt -38.8889 28.5714
vt -27.7778 17.1429
vt -27.7778 17.1429
vt -38.8889 28.5714
vt -38.8889 17.1429
vt -27.7778 17.1429
vt -38.8889 17.1429
vt -27.7778 5.71429
vt -27.7778 5.71429
vt -38.8889 17.1429
vt -38.8889 5.71429
vt -27.7778 5.71429
vt -38.8889 5.71429
vt -27.7778 -5.71429
vt -27.7778 -5.71429
vt -38.8889 5.71429
vt -38.8889 -5.71429
vt -27.7778 -5.71429
vt -38.8889 -5.71429
vt -27.7778 -17.1429
vt -27.7778 -17.1429
vt -38.8889 -5.71429
vt -38.8889 -17.1429
vt -27.7778 -17.1429
vt -38.8889 -17.1429
vt -27.7778 -28.5714
vt -27.7778 -28.5714
vt -38.8889 -17.1429
vt -38.8889 -28.5714
vt -50 40
vt -50 30
vt -38.8889 40
vt -38.8889 40
vt -50 30
vt -38.8889 28.5714
vt -50 30
vt -50 20
vt -38.8889 28.5714
vt -38.8889 28.5714
vt -50 20
vt -38.8889 17.1429
vt -50 20
vt -50 10
vt -38.8889 17.1429
vt -38.8889 17.1429
vt -50 10
vt -38.8889 5.71429
vt -50 10
vt -50 0
vt -38.8889 5.71429
vt -38.8889 5.71429
vt -50 0
vt -38.8889 -5.71429
vt -50 0
vt -50 -10
vt -38.8889 -5.71429
vt -38.8889 -5.71429
vt -50 -10
vt -38.8889 -17.1429
vt -50 -10
vt -50 -20
vt -38.8889 -17.1429
vt -38.8889 -17.1429
vt -50 -20
vt -38.8889 -28.5714
vt -50 -20
vt -50 -30
vt -38.8889 -28.5714
usemtl Paralelopiped_1
f 1/1/1 2/2/2 3/3/3
f 3/4/3 2/5/2 4/6/4
f 3/7/3 4/8/4 5/9/5
f 5/10/5 4/11/4 6/12/6
f 5/13/5 6/14/6 7/15/7
f 7/16/7 6/17/6 8/18/8
f 7/19/7 8/20/8 9/21/9
f 9/22/9 8/23/8 10/24/10
f 9/25/9 10/26/10 11/27/11
f 11/28/11 10/29/10 12/30/12
f 11/31/11 12/32/12 13/33/13
f 13/34/13 12/35/12 14/36/14
f 13/37/13 14/38/14 15/39/15
f 15/40/15 14/41/14 16/42/16
f 15/43/15 16/44/16 17/45/17
f 2/46/2 18/47/18 4/48/4
f 4/49/4 18/50/18 19/51/19
f 4/52/4 19/53/19 6/54/6
f 6/55/6 19/56/19 20/57/20
f 6/58/6 20/59/20 8/60/8
f 8/61/8 20/62/20 21/63/21
f 8/64/8 21/65/21 10/66/10
f 10/67/10 21/68/21 22/69/22
f 10/70/10 22/71/22 12/72/12
f 12/73/12 22/74/22 23/75/23
f 12/76/12 23/77/23 14/78/14
f 14/79/14 23/80/23 24/81/24
f 14/82/14 24/83/24 25/84/25
f 25/85/25 24/86/24 26/87/26
f 26/88/26 24/89/24 27/90/27
f 26/91/26 27/92/27 28/93/28
f 28/94/28 27/95/27 29/96/29
f 28/97/28 29/98/29 30/99/30
f 30/100/30 29/101/29 31/102/31
f 30/103/30 31/104/31 32/105/32
f 32/106/32 31/107/31 33/108/33
f 32/109/32 33/110/33 34/111/34
f 34/112/34 33/113/33 35/114/35
f 34/115/34 35/116/35 36/117/36
f 18/118/18 37/119/37 19/120/19
f 19/121/19 37/122/37 38/123/38
f 19/124/19 38/125/38 20/126/20
f 20/127/20 38/128/38 39/129/39
f 20/130/20 39/131/39 21/132/21
f 21/133/21 39/134/39 40/135/40
f 21/136/21 40/137/40 22/138/22
f 22/139/22 40/140/40 41/141/41
f 22/142/22 41/143/41 23/144/23
f 23/145/23 41/146/41 42/147/42
f 23/148/23 42/149/42 24/150/24
f 24/151/24 42/152/42 27/153/27
f 37/154/37 43/155/43 38/156/38
f 38/157/38 43/158/43 44/159/44
f 38/160/38 44/161/44 39/162/39
f 39/163/39 44/164/44 45/165/45
f 39/166/39 45/167/45 40/168/40
f 40/169/40 45/170/45 46/171/46
f 40/172/40 46/173/46 41/174/41
f 41/175/41 46/176/46 47/177/47
f 41/178/41 47/179/47 42/180/42
f 42/181/42 47/182/47 48/183/48
f 42/184/42 48/185/48 27/186/27
f 27/187/27 48/188/48 29/189/29
f 43/190/43 49/191/49 44/192/44
f 44/193/44 49/194/49 50/195/50
f 44/196/44 50/197/50 45/198/45
f 45/199/45 50/200/50 51/201/51
f 45/202/45 51/203/51 46/204/46
f 46/205/46 51/206/51 52/207/52
f 46/208/46 52/209/52 47/210/47
f 47/211/47 52/212/52 53/213/53
f 47/214/47 53/215/53 48/216/48
f 48/217/48 53/218/53 54/219/54
f 48/220/48 54/221/54 29/222/29
f 29/223/29 54/224/54 31/225/31
f 49/226/49 55/227/55 50/228/50
f 50/229/50 55/230/55 56/231/56
f 50/232/50 56/233/56 51/234/51
f 51/235/51 56/236/56 57/237/57
f 51/238/51 57/239/57 52/240/52
f 52/241/52 57/242/57 58/243/58
f 52/244/52 58/245/58 53/246/53
f 53/247/53 58/248/58 59/249/59
f 53/250/53 59/251/59 54/252/54
f 54/253/54 59/254/59 60/255/60
f 54/256/54 60/257/60 31/258/31
f 31/259/31 60/260/60 33/261/33
f 55/262/55 61/263/61 56/264/56
f 56/265/56 61/266/61 62/267/62
f 56/268/56 62/269/62 63/270/63
f 61/271/61 64/272/64 62/273/62
f 56/274/56 63/275/63 57/276/57
f 57/277/57 63/278/63 65/279/65
f 57/280/57 65/281/65 58/282/58
f 58/283/58 65/284/65 66/285/66
f 58/286/58 66/287/66 59/288/59
f 59/289/59 66/290/66 67/291/67
f 59/292/59 67/293/67 60/294/60
f 60/295/60 67/296/67 68/297/68
f 60/298/60 68/299/68 33/300/33
f 33/301/33 68/302/68 35/303/35
f 25/304/25 16/305/16 14/306/14
f 69/307/69 70/308/70 71/309/71
f 71/310/71 70/311/70 72/312/72
f 71/313/71 72/314/72 73/315/73
f 73/316/73 72/317/72 74/318/74
f 73/319/73 74/320/74 75/321/75
f 75/322/75 74/323/74 76/324/76
f 75/325/75 76/326/76 77/327/77
f 77/328/77 76/329/76 78/330/78
f 77/331/77 78/332/78 79/333/79
f 79/334/79 78/335/78 80/336/80
f 79/337/79 80/338/80 81/339/81
f 81/340/81 80/341/80 82/342/82
f 81/343/81 82/344/82 83/345/83
f 83/346/83 82/347/82 84/348/84
f 83/349/83 84/350/84 85/351/85
f 85/352/85 84/353/84 86/354/86
f 85/355/85 86/356/86 87/357/87
f 87/358/87 86/359/86 88/360/88
f 87/361/87 88/362/88 89/363/89
f 89/364/89 88/365/88 90/366/90
f 89/367/89 90/368/90 91/369/91
f 91/370/91 90/371/90 92/372/92
f 91/373/91 92/374/92 93/375/93
f 93/376/93 92/377/92 94/378/94
f 93/379/93 94/380/94 95/381/95
f 95/382/95 94/383/94 96/384/96
f 95/385/95 96/386/96 97/387/97
f 97/388/97 96/389/96 98/390/98
f 97/391/97 98/392/98 99/393/99
f 99/394/99 98/395/98 100/396/100
f 100/397/100 98/398/98 101/399/101
f 100/400/100 101/401/101 102/402/102
f 102/403/102 101/404/101 103/405/103
f 102/406/102 103/407/103 15/408/15
f 15/409/15 103/410/103 13/411/13
f 13/412/13 103/413/103 101/414/101
f 13/415/13 101/416/101 104/417/104
f 104/418/104 101/419/101 98/420/98
f 104/421/104 98/422/98 96/423/96
f 72/424/72 70/425/70 74/426/74
f 74/427/74 70/428/70 105/429/105
f 74/430/74 105/431/105 76/432/76
f 76/433/76 105/434/105 106/435/106
f 76/436/76 106/437/106 78/438/78
f 78/439/78 106/440/106 107/441/107
f 78/442/78 107/443/107 80/444/80
f 80/445/80 107/446/107 108/447/108
f 80/448/80 108/449/108 82/450/82
f 82/451/82 108/452/108 109/453/109
f 82/454/82 109/455/109 84/456/84
f 84/457/84 109/458/109 110/459/110
f 84/460/84 110/461/110 86/462/86
f 86/463/86 110/464/110 111/465/111
f 86/466/86 111/467/111 88/468/88
f 88/469/88 111/470/111 1/471/1
f 88/472/88 1/473/1 3/474/3
f 88/475/88 3/476/3 90/477/90
f 90/478/90 3/479/3 5/480/5
f 90/481/90 5/482/5 7/483/7
f 90/484/90 7/485/7 92/486/92
f 92/487/92 7/488/7 9/489/9
f 92/490/92 9/491/9 94/492/94
f 94/493/94 9/494/9 112/495/112
f 94/496/94 112/497/112 96/498/96
f 96/499/96 112/500/112 104/501/104
f 9/502/9 11/503/11 112/504/112
f 112/505/112 11/506/11 104/507/104
f 11/508/11 13/509/13 104/510/104
f 15/511/15 17/512/17 102/513/102
f 99/514/99 113/515/113 97/516/97
f 97/517/97 113/518/113 114/519/114
f 97/520/97 114/521/114 95/522/95
f 95/523/95 114/524/114 115/525/115
f 95/526/95 115/527/115 93/528/93
f 93/529/93 115/530/115 116/531/116
f 93/532/93 116/533/116 91/534/91
f 91/535/91 116/536/116 117/537/117
f 91/538/91 117/539/117 89/540/89
f 89/541/89 117/542/117 87/543/87
f 113/544/113 118/545/118 114/546/114
f 114/547/114 118/548/118 119/549/119
f 114/550/114 119/551/119 115/552/115
f 115/553/115 119/554/119 120/555/120
f 115/556/115 120/557/120 116/558/116
f 116/559/116 120/560/120 121/561/121
f 116/562/116 121/563/121 117/564/117
f 117/565/117 121/566/121 122/567/122
f 117/568/117 122/569/122 87/570/87
f 87/571/87 122/572/122 85/573/85
f 118/574/118 123/575/123 119/576/119
f 119/577/119 123/578/123 124/579/124
f 119/580/119 124/581/124 120/582/120
f 120/583/120 124/584/124 125/585/125
f 120/586/120 125/587/125 121/588/121
f 121/589/121 125/590/125 126/591/126
f 121/592/121 126/593/126 122/594/122
f 122/595/122 126/596/126 127/597/127
f 122/598/122 127/599/127 85/600/85
f 85/601/85 127/602/127 83/603/83
f 123/604/123 128/605/128 124/606/124
f 124/607/124 128/608/128 129/609/129
f 124/610/124 129/611/129 125/612/125
f 125/613/125 129/614/129 130/615/130
f 125/616/125 130/617/130 126/618/126
f 126/619/126 130/620/130 131/621/131
f 126/622/126 131/623/131 127/624/127
f 127/625/127 131/626/131 132/627/132
f 127/628/127 132/629/132 83/630/83
f 83/631/83 132/632/132 81/633/81
f 128/634/128 133/635/133 129/636/129
f 129/637/129 133/638/133 134/639/134
f 129/640/129 134/641/134 130/642/130
f 130/643/130 134/644/134 135/645/135
f 130/646/130 135/647/135 131/648/131
f 131/649/131 135/650/135 136/651/136
f 131/652/131 136/653/136 132/654/132
f 132/655/132 136/656/136 137/657/137
f 132/658/132 137/659/137 81/660/81
f 81/661/81 137/662/137 79/663/79
f 133/664/133 138/665/138 134/666/134
f 134/667/134 138/668/138 139/669/139
f 134/670/134 139/671/139 140/672/140
f 140/673/140 139/674/139 141/675/141
f 140/676/140 141/677/141 142/678/142
f 140/679/140 142/680/142 143/681/143
f 143/682/143 142/683/142 144/684/144
f 143/685/143 144/686/144 145/687/145
f 145/688/145 144/689/144 146/690/146
f 145/691/145 146/692/146 77/693/77
f 77/694/77 146/695/146 75/696/75
f 144/697/144 147/698/147 146/699/146
f 146/700/146 147/701/147 75/702/75
f 147/703/147 73/704/73 75/705/75
f 145/706/145 77/707/77 79/708/79
f 145/709/145 79/710/79 137/711/137
f 143/712/143 145/713/145 137/714/137
f 143/715/143 137/716/137 136/717/136
f 140/718/140 143/719/143 136/720/136
f 140/721/140 136/722/136 135/723/135
f 134/724/134 140/725/140 135/726/135
f 148/727/148 149/728/149 150/729/150
f 150/730/150 149/731/149 151/732/151
f 150/733/150 151/734/151 152/735/152
f 152/736/152 151/737/151 153/738/153
f 152/739/152 153/740/153 154/741/154
f 154/742/154 153/743/153 155/744/155
f 154/745/154 155/746/155 156/747/156
f 156/748/156 155/749/155 157/750/157
f 156/751/156 157/752/157 158/753/158
f 158/754/158 157/755/157 159/756/159
f 158/757/158 159/758/159 160/759/160
f 160/760/160 159/761/159 161/762/161
f 160/763/160 161/764/161 162/765/162
f 162/766/162 161/767/161 163/768/163
f 162/769/162 163/770/163 164/771/164
f 149/772/149 165/773/165 151/774/151
f 151/775/151 165/776/165 166/777/166
f 151/778/151 166/779/166 153/780/153
f 153/781/153 166/782/166 167/783/167
f 153/784/153 167/785/167 155/786/155
f 155/787/155 167/788/167 168/789/168
f 155/790/155 168/791/168 157/792/157
f 157/793/157 168/794/168 169/795/169
f 157/796/157 169/797/169 159/798/159
f 159/799/159 169/800/169 170/801/170
f 159/802/159 170/803/170 161/804/161
f 161/805/161 170/806/170 171/807/171
f 161/808/161 171/809/171 172/810/172
f 172/811/172 171/812/171 173/813/173
f 173/814/173 171/815/171 174/816/174
f 173/817/173 174/818/174 175/819/175
f 175/820/175 174/821/174 176/822/176
f 175/823/175 176/824/176 177/825/177
f 177/826/177 176/827/176 178/828/178
f 177/829/177 178/830/178 179/831/179
f 179/832/179 178/833/178 180/834/180
f 179/835/179 180/836/180 181/837/181
f 181/838/181 180/839/180 139/840/139
f 181/841/181 139/842/139 138/843/138
f 165/844/165 182/845/182 166/846/166
f 166/847/166 182/848/182 183/849/183
f 166/850/166 183/851/183 167/852/167
f 167/853/167 183/854/183 184/855/184
f 167/856/167 184/857/184 168/858/168
f 168/859/168 184/860/184 185/861/185
f 168/862/168 185/863/185 169/864/169
f 169/865/169 185/866/185 186/867/186
f 169/868/169 186/869/186 170/870/170
f 170/871/170 186/872/186 187/873/187
f 170/874/170 187/875/187 171/876/171
f 171/877/171 187/878/187 174/879/174
f 182/880/182 188/881/188 183/882/183
f 183/883/183 188/884/188 189/885/189
f 183/886/183 189/887/189 184/888/184
f 184/889/184 189/890/189 190/891/190
f 184/892/184 190/893/190 185/894/185
f 185/895/185 190/896/190 191/897/191
f 185/898/185 191/899/191 186/900/186
f 186/901/186 191/902/191 192/903/192
f 186/904/186 192/905/192 187/906/187
f 187/907/187 192/908/192 193/909/193
f 187/910/187 193/911/193 174/912/174
f 174/913/174 193/914/193 176/915/176
f 188/916/188 194/917/194 189/918/189
f 189/919/189 194/920/194 195/921/195
f 189/922/189 195/923/195 190/924/190
f 190/925/190 195/926/195 196/927/196
f 190/928/190 196/929/196 191/930/191
f 191/931/191 196/932/196 197/933/197
f 191/934/191 197/935/197 192/936/192
f 192/937/192 197/938/197 198/939/198
f 192/940/192 198/941/198 193/942/193
f 193/943/193 198/944/198 199/945/199
f 193/946/193 199/947/199 176/948/176
f 176/949/176 199/950/199 178/951/178
f 194/952/194 200/953/200 195/954/195
f 195/955/195 200/956/200 201/957/201
f 195/958/195 201/959/201 196/960/196
f 196/961/196 201/962/201 202/963/202
f 196/964/196 202/965/202 197/966/197
f 197/967/197 202/968/202 203/969/203
f 197/970/197 203/971/203 198/972/198
f 198/973/198 203/974/203 204/975/204
f 198/976/198 204/977/204 199/978/199
f 199/979/199 204/980/204 205/981/205
f 199/982/199 205/983/205 178/984/178
f 178/985/178 205/986/205 180/987/180
f 200/988/200 206/989/206 201/990/201
f 201/991/201 206/992/206 71/993/71
f 201/994/201 71/995/71 73/996/73
f 206/997/206 69/998/69 71/999/71
f 201/1000/201 73/1001/73 202/1002/202
f 202/1003/202 73/1004/73 147/1005/147
f 202/1006/202 147/1007/147 203/1008/203
f 203/1009/203 147/1010/147 144/1011/144
f 203/1012/203 144/1013/144 204/1014/204
f 204/1015/204 144/1016/144 142/1017/142
f 204/1018/204 142/1019/142 205/1020/205
f 205/1021/205 142/1022/142 141/1023/141
f 205/1024/205 141/1025/141 180/1026/180
f 180/1027/180 141/1028/141 139/1029/139
f 172/1030/172 163/1031/163 161/1032/161
f 62/1033/62 64/1034/64 207/1035/207
f 207/1036/207 64/1037/64 208/1038/208
f 207/1039/207 208/1040/208 209/1041/209
f 209/1042/209 208/1043/208 210/1044/210
f 209/1045/209 210/1046/210 211/1047/211
f 211/1048/211 210/1049/210 212/1050/212
f 211/1051/211 212/1052/212 213/1053/213
f 213/1054/213 212/1055/212 214/1056/214
f 213/1057/213 214/1058/214 215/1059/215
f 215/1060/215 214/1061/214 216/1062/216
f 215/1063/215 216/1064/216 217/1065/217
f 217/1066/217 216/1067/216 218/1068/218
f 217/1069/217 218/1070/218 219/1071/219
f 219/1072/219 218/1073/218 220/1074/220
f 219/1075/219 220/1076/220 221/1077/221
f 221/1078/221 220/1079/220 222/1080/222
f 221/1081/221 222/1082/222 223/1083/223
f 223/1084/223 222/1085/222 150/1086/150
f 223/1087/223 150/1088/150 152/1089/152
f 222/1090/222 148/1091/148 150/1092/150
f 154/1093/154 224/1094/224 152/1095/152
f 152/1096/152 224/1097/224 221/1098/221
f 152/1099/152 221/1100/221 223/1101/223
f 224/1102/224 154/1103/154 225/1104/225
f 225/1105/225 154/1106/154 156/1107/156
f 225/1108/225 156/1109/156 226/1110/226
f 226/1111/226 156/1112/156 227/1113/227
f 226/1114/226 227/1115/227 228/1116/228
f 228/1117/228 227/1118/227 229/1119/229
f 228/1120/228 229/1121/229 230/1122/230
f 230/1123/230 229/1124/229 231/1125/231
f 230/1126/230 231/1127/231 232/1128/232
f 232/1129/232 231/1130/231 233/1131/233
f 232/1132/232 233/1133/233 234/1134/234
f 156/1135/156 158/1136/158 227/1137/227
f 227/1138/227 158/1139/158 235/1140/235
f 227/1141/227 235/1142/235 229/1143/229
f 229/1144/229 235/1145/235 236/1146/236
f 229/1147/229 236/1148/236 231/1149/231
f 231/1150/231 236/1151/236 237/1152/237
f 231/1153/231 237/1154/237 233/1155/233
f 158/1156/158 160/1157/160 235/1158/235
f 235/1159/235 160/1160/160 162/1161/162
f 235/1162/235 162/1163/162 236/1164/236
f 236/1165/236 162/1166/162 164/1167/164
f 236/1168/236 164/1169/164 237/1170/237
f 232/1171/232 234/1172/234 238/1173/238
f 238/1174/238 234/1175/234 239/1176/239
f 238/1177/238 239/1178/239 240/1179/240
f 240/1180/240 239/1181/239 241/1182/241
f 240/1183/240 241/1184/241 242/1185/242
f 242/1186/242 241/1187/241 243/1188/243
f 242/1189/242 243/1190/243 244/1191/244
f 244/1192/244 243/1193/243 245/1194/245
f 244/1195/244 245/1196/245 246/1197/246
f 246/1198/246 245/1199/245 247/1200/247
f 246/1201/246 247/1202/247 248/1203/248
f 248/1204/248 247/1205/247 35/1206/35
f 248/1207/248 35/1208/35 68/1209/68
f 247/1210/247 36/1211/36 35/1212/35
f 67/1213/67 249/1214/249 68/1215/68
f 68/1216/68 249/1217/249 246/1218/246
f 68/1219/68 246/1220/246 248/1221/248
f 249/1222/249 67/1223/67 250/1224/250
f 250/1225/250 67/1226/67 66/1227/66
f 250/1228/250 66/1229/66 251/1230/251
f 251/1231/251 66/1232/66 252/1233/252
f 251/1234/251 252/1235/252 253/1236/253
f 253/1237/253 252/1238/252 254/1239/254
f 253/1240/253 254/1241/254 255/1242/255
f 255/1243/255 254/1244/254 209/1245/209
f 255/1246/255 209/1247/209 211/1248/211
f 66/1249/66 65/1250/65 252/1251/252
f 252/1252/252 65/1253/65 256/1254/256
f 252/1255/252 256/1256/256 254/1257/254
f 254/1258/254 256/1259/256 207/1260/207
f 254/1261/254 207/1262/207 209/1263/209
f 65/1264/65 63/1265/63 256/1266/256
f 256/1267/256 63/1268/63 62/1269/62
f 256/1270/256 62/1271/62 207/1272/207
f 219/1273/219 221/1274/221 257/1275/257
f 257/1276/257 221/1277/221 224/1278/224
f 257/1279/257 224/1280/224 226/1281/226
f 226/1282/226 224/1283/224 225/1284/225
f 217/1285/217 219/1286/219 258/1287/258
f 258/1288/258 219/1289/219 257/1290/257
f 258/1291/258 257/1292/257 259/1293/259
f 259/1294/259 257/1295/257 226/1296/226
f 259/1297/259 226/1298/226 228/1299/228
f 215/1300/215 217/1301/217 260/1302/260
f 260/1303/260 217/1304/217 258/1305/258
f 260/1306/260 258/1307/258 261/1308/261
f 261/1309/261 258/1310/258 259/1311/259
f 261/1312/261 259/1313/259 262/1314/262
f 262/1315/262 259/1316/259 228/1317/228
f 262/1318/262 228/1319/228 230/1320/230
f 213/1321/213 215/1322/215 263/1323/263
f 263/1324/263 215/1325/215 260/1326/260
f 263/1327/263 260/1328/260 264/1329/264
f 264/1330/264 260/1331/260 261/1332/261
f 264/1333/264 261/1334/261 265/1335/265
f 265/1336/265 261/1337/261 262/1338/262
f 265/1339/265 262/1340/262 266/1341/266
f 266/1342/266 262/1343/262 230/1344/230
f 266/1345/266 230/1346/230 232/1347/232
f 211/1348/211 213/1349/213 267/1350/267
f 267/1351/267 213/1352/213 263/1353/263
f 267/1354/267 263/1355/263 268/1356/268
f 268/1357/268 263/1358/263 264/1359/264
f 268/1360/268 264/1361/264 269/1362/269
f 269/1363/269 264/1364/264 265/1365/265
f 269/1366/269 265/1367/265 270/1368/270
f 270/1369/270 265/1370/265 266/1371/266
f 270/1372/270 266/1373/266 238/1374/238
f 238/1375/238 266/1376/266 232/1377/232
f 211/1378/211 267/1379/267 255/1380/255
f 255/1381/255 267/1382/267 271/1383/271
f 255/1384/255 271/1385/271 253/1386/253
f 253/1387/253 271/1388/271 272/1389/272
f 253/1390/253 272/1391/272 251/1392/251
f 251/1393/251 272/1394/272 273/1395/273
f 251/1396/251 273/1397/273 249/1398/249
f 249/1399/249 273/1400/273 246/1401/246
f 271/1402/271 267/1403/267 268/1404/268
f 271/1405/271 268/1406/268 274/1407/274
f 274/1408/274 268/1409/268 269/1410/269
f 274/1411/274 269/1412/269 275/1413/275
f 275/1414/275 269/1415/269 270/1416/270
f 275/1417/275 270/1418/270 240/1419/240
f 240/1420/240 270/1421/270 238/1422/238
f 271/1423/271 274/1424/274 272/1425/272
f 272/1426/272 274/1427/274 276/1428/276
f 272/1429/272 276/1430/276 273/1431/273
f 273/1432/273 276/1433/276 244/1434/244
f 273/1435/273 244/1436/244 246/1437/246
f 276/1438/276 274/1439/274 275/1440/275
f 249/1441/249 250/1442/250 251/1443/251
f 240/1444/240 242/1445/242 275/1446/275
f 275/1447/275 242/1448/242 276/1449/276
f 242/1450/242 244/1451/244 276/1452/276
f 36/1453/36 247/1454/247 34/1455/34
f 34/1456/34 247/1457/247 277/1458/277
f 34/1459/34 277/1460/277 32/1461/32
f 32/1462/32 277/1463/277 278/1464/278
f 32/1465/32 278/1466/278 30/1467/30
f 30/1468/30 278/1469/278 279/1470/279
f 30/1471/30 279/1472/279 28/1473/28
f 28/1474/28 279/1475/279 280/1476/280
f 28/1477/28 280/1478/280 26/1479/26
f 26/1480/26 280/1481/280 281/1482/281
f 26/1483/26 281/1484/281 25/1485/25
f 25/1486/25 281/1487/281 282/1488/282
f 25/1489/25 282/1490/282 16/1491/16
f 16/1492/16 282/1493/282 102/1494/102
f 16/1495/16 102/1496/102 17/1497/17
f 247/1498/247 245/1499/245 277/1500/277
f 277/1501/277 245/1502/245 283/1503/283
f 277/1504/277 283/1505/283 278/1506/278
f 278/1507/278 283/1508/283 284/1509/284
f 278/1510/278 284/1511/284 279/1512/279
f 279/1513/279 284/1514/284 285/1515/285
f 279/1516/279 285/1517/285 280/1518/280
f 280/1519/280 285/1520/285 286/1521/286
f 280/1522/280 286/1523/286 281/1524/281
f 281/1525/281 286/1526/286 287/1527/287
f 281/1528/281 287/1529/287 282/1530/282
f 282/1531/282 287/1532/287 288/1533/288
f 282/1534/282 288/1535/288 102/1536/102
f 102/1537/102 288/1538/288 100/1539/100
f 100/1540/100 288/1541/288 289/1542/289
f 100/1543/100 289/1544/289 99/1545/99
f 99/1546/99 289/1547/289 290/1548/290
f 99/1549/99 290/1550/290 113/1551/113
f 113/1552/113 290/1553/290 291/1554/291
f 113/1555/113 291/1556/291 118/1557/118
f 118/1558/118 291/1559/291 292/1560/292
f 118/1561/118 292/1562/292 123/1563/123
f 123/1564/123 292/1565/292 293/1566/293
f 123/1567/123 293/1568/293 128/1569/128
f 128/1570/128 293/1571/293 294/1572/294
f 128/1573/128 294/1574/294 133/1575/133
f 133/1576/133 294/1577/294 181/1578/181
f 133/1579/133 181/1580/181 138/1581/138
f 245/1582/245 243/1583/243 283/1584/283
f 283/1585/283 243/1586/243 295/1587/295
f 283/1588/283 295/1589/295 284/1590/284
f 284/1591/284 295/1592/295 296/1593/296
f 284/1594/284 296/1595/296 285/1596/285
f 285/1597/285 296/1598/296 297/1599/297
f 285/1600/285 297/1601/297 286/1602/286
f 286/1603/286 297/1604/297 298/1605/298
f 286/1606/286 298/1607/298 287/1608/287
f 287/1609/287 298/1610/298 299/1611/299
f 287/1612/287 299/1613/299 288/1614/288
f 288/1615/288 299/1616/299 289/1617/289
f 243/1618/243 241/1619/241 295/1620/295
f 295/1621/295 241/1622/241 300/1623/300
f 295/1624/295 300/1625/300 296/1626/296
f 296/1627/296 300/1628/300 301/1629/301
f 296/1630/296 301/1631/301 297/1632/297
f 297/1633/297 301/1634/301 302/1635/302
f 297/1636/297 302/1637/302 298/1638/298
f 298/1639/298 302/1640/302 303/1641/303
f 298/1642/298 303/1643/303 299/1644/299
f 299/1645/299 303/1646/303 304/1647/304
f 299/1648/299 304/1649/304 289/1650/289
f 289/1651/289 304/1652/304 290/1653/290
f 241/1654/241 239/1655/239 300/1656/300
f 300/1657/300 239/1658/239 305/1659/305
f 300/1660/300 305/1661/305 301/1662/301
f 301/1663/301 305/1664/305 306/1665/306
f 301/1666/301 306/1667/306 302/1668/302
f 302/1669/302 306/1670/306 307/1671/307
f 302/1672/302 307/1673/307 303/1674/303
f 303/1675/303 307/1676/307 308/1677/308
f 303/1678/303 308/1679/308 304/1680/304
f 304/1681/304 308/1682/308 309/1683/309
f 304/1684/304 309/1685/309 290/1686/290
f 290/1687/290 309/1688/309 291/1689/291
f 239/1690/239 234/1691/234 305/1692/305
f 305/1693/305 234/1694/234 310/1695/310
f 305/1696/305 310/1697/310 306/1698/306
f 306/1699/306 310/1700/310 311/1701/311
f 306/1702/306 311/1703/311 307/1704/307
f 307/1705/307 311/1706/311 312/1707/312
f 307/1708/307 312/1709/312 308/1710/308
f 308/1711/308 312/1712/312 313/1713/313
f 308/1714/308 313/1715/313 309/1716/309
f 309/1717/309 313/1718/313 314/1719/314
f 309/1720/309 314/1721/314 291/1722/291
f 291/1723/291 314/1724/314 292/1725/292
f 234/1726/234 233/1727/233 310/1728/310
f 310/1729/310 233/1730/233 315/1731/315
f 310/1732/310 315/1733/315 311/1734/311
f 311/1735/311 315/1736/315 316/1737/316
f 311/1738/311 316/1739/316 312/1740/312
f 312/1741/312 316/1742/316 317/1743/317
f 312/1744/312 317/1745/317 313/1746/313
f 313/1747/313 317/1748/317 318/1749/318
f 313/1750/313 318/1751/318 314/1752/314
f 314/1753/314 318/1754/318 319/1755/319
f 314/1756/314 319/1757/319 292/1758/292
f 292/1759/292 319/1760/319 293/1761/293
f 233/1762/233 237/1763/237 315/1764/315
f 315/1765/315 237/1766/237 320/1767/320
f 315/1768/315 320/1769/320 316/1770/316
f 316/1771/316 320/1772/320 321/1773/321
f 316/1774/316 321/1775/321 317/1776/317
f 317/1777/317 321/1778/321 322/1779/322
f 317/1780/317 322/1781/322 318/1782/318
f 318/1783/318 322/1784/322 323/1785/323
f 318/1786/318 323/1787/323 319/1788/319
f 319/1789/319 323/1790/323 324/1791/324
f 319/1792/319 324/1793/324 293/1794/293
f 293/1795/293 324/1796/324 294/1797/294
f 164/1798/164 163/1799/163 237/1800/237
f 237/1801/237 163/1802/163 320/1803/320
f 163/1804/163 172/1805/172 320/1806/320
f 320/1807/320 172/1808/172 321/1809/321
f 172/1810/172 173/1811/173 321/1812/321
f 321/1813/321 173/1814/173 322/1815/322
f 173/1816/173 175/1817/175 322/1818/322
f 322/1819/322 175/1820/175 323/1821/323
f 175/1822/175 177/1823/177 323/1824/323
f 323/1825/323 177/1826/177 324/1827/324
f 177/1828/177 179/1829/179 324/1830/324
f 324/1831/324 179/1832/179 294/1833/294
f 179/1834/179 181/1835/181 294/1836/294
f 148/1837/148 222/1838/222 149/1839/149
f 149/1840/149 222/1841/222 325/1842/325
f 149/1843/149 325/1844/325 165/1845/165
f 165/1846/165 325/1847/325 326/1848/326
f 165/1849/165 326/1850/326 182/1851/182
f 182/1852/182 326/1853/326 327/1854/327
f 182/1855/182 327/1856/327 188/1857/188
f 188/1858/188 327/1859/327 328/1860/328
f 188/1861/188 328/1862/328 194/1863/194
f 194/1864/194 328/1865/328 329/1866/329
f 194/1867/194 329/1868/329 200/1869/200
f 200/1870/200 329/1871/329 330/1872/330
f 200/1873/200 330/1874/330 206/1875/206
f 206/1876/206 330/1877/330 70/1878/70
f 206/1879/206 70/1880/70 69/1881/69
f 222/1882/222 220/1883/220 325/1884/325
f 325/1885/325 220/1886/220 331/1887/331
f 325/1888/325 331/1889/331 326/1890/326
f 326/1891/326 331/1892/331 332/1893/332
f 326/1894/326 332/1895/332 327/1896/327
f 327/1897/327 332/1898/332 333/1899/333
f 327/1900/327 333/1901/333 328/1902/328
f 328/1903/328 333/1904/333 334/1905/334
f 328/1906/328 334/1907/334 329/1908/329
f 329/1909/329 334/1910/334 335/1911/335
f 329/1912/329 335/1913/335 330/1914/330
f 330/1915/330 335/1916/335 336/1917/336
f 330/1918/330 336/1919/336 70/1920/70
f 70/1921/70 336/1922/336 105/1923/105
f 105/1924/105 336/1925/336 337/1926/337
f 105/1927/105 337/1928/337 106/1929/106
f 106/1930/106 337/1931/337 338/1932/338
f 106/1933/106 338/1934/338 107/1935/107
f 107/1936/107 338/1937/338 339/1938/339
f 107/1939/107 339/1940/339 108/1941/108
f 108/1942/108 339/1943/339 340/1944/340
f 108/1945/108 340/1946/340 109/1947/109
f 109/1948/109 340/1949/340 341/1950/341
f 109/1951/109 341/1952/341 110/1953/110
f 110/1954/110 341/1955/341 342/1956/342
f 110/1957/110 342/1958/342 111/1959/111
f 111/1960/111 342/1961/342 2/1962/2
f 111/1963/111 2/1964/2 1/1965/1
f 220/1966/220 218/1967/218 331/1968/331
f 331/1969/331 218/1970/218 343/1971/343
f 331/1972/331 343/1973/343 332/1974/332
f 332/1975/332 343/1976/343 344/1977/344
f 332/1978/332 344/1979/344 333/1980/333
f 333/1981/333 344/1982/344 345/1983/345
f 333/1984/333 345/1985/345 334/1986/334
f 334/1987/334 345/1988/345 346/1989/346
f 334/1990/334 346/1991/346 335/1992/335
f 335/1993/335 346/1994/346 347/1995/347
f 335/1996/335 347/1997/347 336/1998/336
f 336/1999/336 347/2000/347 337/2001/337
f 218/2002/218 216/2003/216 343/2004/343
f 343/2005/343 216/2006/216 348/2007/348
f 343/2008/343 348/2009/348 344/2010/344
f 344/2011/344 348/2012/348 349/2013/349
f 344/2014/344 349/2015/349 345/2016/345
f 345/2017/345 349/2018/349 350/2019/350
f 345/2020/345 350/2021/350 346/2022/346
f 346/2023/346 350/2024/350 351/2025/351
f 346/2026/346 351/2027/351 347/2028/347
f 347/2029/347 351/2030/351 352/2031/352
f 347/2032/347 352/2033/352 337/2034/337
f 337/2035/337 352/2036/352 338/2037/338
f 216/2038/216 214/2039/214 348/2040/348
f 348/2041/348 214/2042/214 353/2043/353
f 348/2044/348 353/2045/353 349/2046/349
f 349/2047/349 353/2048/353 354/2049/354
f 349/2050/349 354/2051/354 350/2052/350
f 350/2053/350 354/2054/354 355/2055/355
f 350/2056/350 355/2057/355 351/2058/351
f 351/2059/351 355/2060/355 356/2061/356
f 351/2062/351 356/2063/356 352/2064/352
f 352/2065/352 356/2066/356 357/2067/357
f 352/2068/352 357/2069/357 338/2070/338
f 338/2071/338 357/2072/357 339/2073/339
f 214/2074/214 212/2075/212 353/2076/353
f 353/2077/353 212/2078/212 358/2079/358
f 353/2080/353 358/2081/358 354/2082/354
f 354/2083/354 358/2084/358 359/2085/359
f 354/2086/354 359/2087/359 355/2088/355
f 355/2089/355 359/2090/359 360/2091/360
f 355/2092/355 360/2093/360 356/2094/356
f 356/2095/356 360/2096/360 361/2097/361
f 356/2098/356 361/2099/361 357/2100/357
f 357/2101/357 361/2102/361 362/2103/362
f 357/2104/357 362/2105/362 339/2106/339
f 339/2107/339 362/2108/362 340/2109/340
f 212/2110/212 210/2111/210 358/2112/358
f 358/2113/358 210/2114/210 363/2115/363
f 358/2116/358 363/2117/363 359/2118/359
f 359/2119/359 363/2120/363 364/2121/364
f 359/2122/359 364/2123/364 360/2124/360
f 360/2125/360 364/2126/364 365/2127/365
f 360/2128/360 365/2129/365 361/2130/361
f 361/2131/361 365/2132/365 366/2133/366
f 361/2134/361 366/2135/366 362/2136/362
f 362/2137/362 366/2138/366 367/2139/367
f 362/2140/362 367/2141/367 340/2142/340
f 340/2143/340 367/2144/367 341/2145/341
f 210/2146/210 208/2147/208 363/2148/363
f 363/2149/363 208/2150/208 368/2151/368
f 363/2152/363 368/2153/368 364/2154/364
f 364/2155/364 368/2156/368 369/2157/369
f 364/2158/364 369/2159/369 365/2160/365
f 365/2161/365 369/2162/369 370/2163/370
f 365/2164/365 370/2165/370 366/2166/366
f 366/2167/366 370/2168/370 371/2169/371
f 366/2170/366 371/2171/371 367/2172/367
f 367/2173/367 371/2174/371 372/2175/372
f 367/2176/367 372/2177/372 341/2178/341
f 341/2179/341 372/2180/372 342/2181/342
f 64/2182/64 61/2183/61 208/2184/208
f 208/2185/208 61/2186/61 368/2187/368
f 61/2188/61 55/2189/55 368/2190/368
f 368/2191/368 55/2192/55 369/2193/369
f 55/2194/55 49/2195/49 369/2196/369
f 369/2197/369 49/2198/49 370/2199/370
f 49/2200/49 43/2201/43 370/2202/370
f 370/2203/370 43/2204/43 371/2205/371
f 43/2206/43 37/2207/37 371/2208/371
f 371/2209/371 37/2210/37 372/2211/372
f 37/2212/37 18/2213/18 372/2214/372
f 372/2215/372 18/2216/18 342/2217/342
f 18/2218/18 2/2219/2 342/2220/342
